<?xml version="1.0" encoding="UTF-8" standalone="no"?>
<svg width="800" height="600" xmlns="http://www.w3.org/2000/svg">
<!--
    Created by csv2svg: https://github.com/msalmonse/csv2svg
  -->
<defs>
<clipPath id="plotable">
<rect x="49.0" y="10.0" width="743.0" height="488.0" />
</clipPath>
</defs>
<g clip-path="url(#plotable)" >
<path d=" M 53.2,481.3 L 57.5,482.2 L 61.7,482.2 L 66.0,482.2 L 70.2,482.2 L 74.5,482.2 L 78.7,482.1 L 83.0,482.0 L 87.2,481.9 L 91.5,482.3 L 95.7,482.1 L 99.9,482.2 L 104.2,482.1 L 108.4,481.7 L 112.7,482.2 L 116.9,482.2 L 121.2,482.2 L 125.4,482.2 L 129.7,482.2 L 133.9,482.2 L 138.2,482.2 L 142.4,482.2 L 146.7,482.2 L 150.9,482.2 L 155.1,482.2 L 159.4,482.2 L 163.6,482.2 L 167.9,482.3 L 172.1,482.3 L 176.4,482.3 L 180.6,482.3 L 184.9,482.3 L 189.1,482.3 L 193.4,482.3 L 197.6,482.3 L 201.8,482.3 L 206.1,481.5 L 210.3,482.3 L 214.6,482.1 L 218.8,482.2 L 223.1,482.2 L 227.3,482.2 L 231.6,482.2 L 235.8,482.2 L 240.1,482.2 L 244.3,482.2 L 248.5,482.2 L 252.8,482.3 L 257.0,482.3 L 261.3,482.3 L 265.5,482.3 L 269.8,482.3 L 274.0,482.3 L 278.3,482.2 L 282.5,482.2 L 286.8,482.2 L 291.0,482.2 L 295.3,482.2 L 299.5,482.3 L 303.7,482.2 L 308.0,482.2 L 312.2,482.2 L 316.5,482.2 L 320.7,482.2 L 325.0,482.3 L 329.2,482.3 L 333.5,482.3 L 337.7,482.2 L 342.0,482.2 L 346.2,482.2 L 350.4,482.2 L 354.7,482.2 L 358.9,482.2 L 363.2,482.3 L 367.4,482.3 L 371.7,482.2 L 375.9,482.2 L 380.2,482.3 L 384.4,482.3 L 388.7,482.3 L 392.9,482.3 L 397.1,482.2 L 401.4,482.2 L 405.6,482.3 L 409.9,482.3 L 414.1,482.2 L 418.4,482.2 L 422.6,482.2 L 426.9,482.3 L 431.1,482.3 L 435.4,482.2 L 439.6,482.1 L 443.9,482.2 L 448.1,482.2 L 452.3,482.2 L 456.6,482.2 L 460.8,482.2 L 465.1,482.2 L 469.3,482.2 L 473.6,482.2 L 477.8,482.2 L 482.1,482.3 L 486.3,482.3 L 490.6,482.2 L 494.8,482.3 L 499.0,482.2 L 503.3,482.2 L 507.5,482.2 L 511.8,482.3 L 516.0,482.3 L 520.3,482.2 L 524.5,482.2 L 528.8,482.3 L 533.0,482.3 L 537.3,482.2 L 541.5,482.2 L 545.7,482.2 L 550.0,482.2 L 554.2,482.2 L 558.5,482.3 L 562.7,482.3 L 567.0,482.3 L 571.2,482.3 L 575.5,482.3 L 579.7,482.3 L 584.0,482.3 L 588.2,482.2 L 592.5,482.0 L 596.7,482.3 L 600.9,482.3 L 605.2,482.2 L 609.4,482.3 L 613.7,482.3 L 617.9,482.2 L 622.2,482.2 L 626.4,482.3 L 630.7,482.2 L 634.9,482.2 L 639.2,482.3 L 643.4,482.3 L 647.6,482.2 L 651.9,482.2 L 656.1,482.2 L 660.4,482.2 L 664.6,482.2 L 668.9,482.3 L 673.1,482.3 L 677.4,482.3 L 681.6,482.3 L 685.9,482.2 L 690.1,482.2 L 694.3,482.2 L 698.6,482.2 L 702.8,482.3 L 707.1,482.3 L 711.3,482.3 L 715.6,482.3 L 719.8,482.2 L 724.1,482.3 L 728.3,482.3 L 732.6,482.3 L 736.8,482.1 L 741.1,482.2 L 745.3,481.9 L 749.5,480.5 L 753.8,482.2 L 758.0,482.2 L 762.3,482.2 L 766.5,482.2 L 770.8,482.2 L 775.0,482.3 L 779.3,480.6 L 783.5,480.5 L 787.8,482.2 L 792.0,480.5 " style="stroke: violet; fill: none; stroke-width: 3" />
<path d=" M 53.2,465.9 L 57.5,466.1 L 61.7,466.3 L 66.0,466.1 L 70.2,465.6 L 74.5,465.7 L 78.7,463.9 L 83.0,466.0 L 87.2,465.5 L 91.5,466.2 L 95.7,466.2 L 99.9,466.2 L 104.2,466.1 L 108.4,465.7 L 112.7,465.7 L 116.9,465.9 L 121.2,465.7 L 125.4,466.2 L 129.7,466.1 L 133.9,466.1 L 138.2,466.1 L 142.4,466.6 L 146.7,466.2 L 150.9,466.2 L 155.1,466.1 L 159.4,465.9 L 163.6,467.0 L 167.9,466.8 L 172.1,466.0 L 176.4,466.1 L 180.6,466.2 L 184.9,466.8 L 189.1,466.1 L 193.4,464.0 L 197.6,466.3 L 201.8,466.4 L 206.1,465.6 L 210.3,466.8 L 214.6,466.8 L 218.8,466.4 L 223.1,466.8 L 227.3,467.2 L 231.6,467.3 L 235.8,454.5 L 240.1,466.7 L 244.3,466.9 L 248.5,466.1 L 252.8,467.2 L 257.0,466.0 L 261.3,467.3 L 265.5,465.7 L 269.8,466.3 L 274.0,466.5 L 278.3,466.2 L 282.5,466.4 L 286.8,467.0 L 291.0,466.9 L 295.3,466.8 L 299.5,466.8 L 303.7,465.9 L 308.0,467.5 L 312.2,467.3 L 316.5,467.2 L 320.7,459.0 L 325.0,467.3 L 329.2,467.7 L 333.5,467.0 L 337.7,467.2 L 342.0,467.3 " style="stroke: #ff0000; fill: none; stroke-width: 3" />
<path d=" M 53.2,465.4 L 57.5,464.7 L 61.7,466.0 L 66.0,466.0 L 70.2,465.4 L 74.5,465.7 L 78.7,464.2 L 83.0,465.6 L 87.2,465.9 L 91.5,465.7 L 95.7,465.1 L 99.9,465.1 L 104.2,464.4 L 108.4,465.6 L 112.7,465.0 L 116.9,465.3 L 121.2,465.4 L 125.4,465.8 L 129.7,466.0 L 133.9,465.7 L 138.2,465.5 L 142.4,464.8 L 146.7,464.6 L 150.9,466.2 L 155.1,465.0 L 159.4,466.0 L 163.6,466.7 L 167.9,465.8 L 172.1,466.1 L 176.4,465.4 L 180.6,465.8 L 184.9,466.2 L 189.1,465.4 L 193.4,464.0 L 197.6,466.2 L 201.8,465.9 L 206.1,466.5 L 210.3,466.3 L 214.6,466.3 L 218.8,466.1 L 223.1,466.4 L 227.3,467.1 L 231.6,466.6 L 235.8,466.3 L 240.1,466.7 L 244.3,466.8 L 248.5,465.8 L 252.8,466.4 L 257.0,466.7 L 261.3,466.0 L 265.5,466.5 L 269.8,466.0 L 274.0,466.3 L 278.3,466.1 L 282.5,466.1 L 286.8,466.7 L 291.0,466.6 L 295.3,467.0 L 299.5,466.7 L 303.7,466.3 L 308.0,467.0 L 312.2,467.1 L 316.5,467.1 L 320.7,467.1 L 325.0,467.0 L 329.2,467.5 L 333.5,465.9 L 337.7,467.3 L 342.0,467.3 L 346.2,466.4 " style="stroke: #00ffff; fill: none; stroke-width: 3" />
<path d=" M 53.2,483.1 L 57.5,459.7 L 61.7,444.6 L 66.0,429.0 L 70.2,414.2 L 74.5,398.8 L 78.7,378.1 L 83.0,366.9 L 87.2,352.2 L 91.5,334.4 L 95.7,317.6 L 99.9,301.6 L 104.2,283.1 L 108.4,271.4 L 112.7,257.2 L 116.9,237.2 L 121.2,217.3 L 125.4,202.3 L 129.7,187.1 L 133.9,170.9 L 138.2,155.3 L 142.4,140.1 L 146.7,123.9 L 150.9,108.3 L 155.1,92.8 L 159.4,80.9 L 163.6,64.7 L 167.9,48.2 L 172.1,33.0 L 176.4,17.8 L 180.6,-3.9 L 184.9,-24.1 L 189.1,-40.9 L 193.4,-74.7 L 197.6,-72.3 L 201.8,-89.6 L 206.1,-101.9 L 210.3,-127.4 L 214.6,-143.0 L 218.8,-156.6 L 223.1,-171.8 L 227.3,-181.9 L 231.6,-195.9 L 235.8,-219.9 L 240.1,-234.3 L 244.3,-253.9 L 248.5,-277.0 L 252.8,-283.5 L 257.0,-300.3 L 261.3,-315.9 L 265.5,-333.4 L 269.8,-350.0 L 274.0,-366.4 L 278.3,-391.5 L 282.5,-407.3 L 286.8,-423.9 L 291.0,-431.6 L 295.3,-446.6 L 299.5,-462.6 L 303.7,-483.3 L 308.0,-508.5 L 312.2,-531.9 L 316.5,-536.2 L 320.7,-551.0 L 325.0,-565.7 L 329.2,-580.9 L 333.5,-597.7 L 337.7,-625.3 L 342.0,-640.1 L 346.2,-645.6 L 350.4,-665.6 L 354.7,-682.8 L 358.9,-691.3 L 363.2,-716.6 L 367.4,-732.7 L 371.7,-753.9 L 375.9,-768.5 L 380.2,-793.5 L 384.4,-810.8 L 388.7,-827.0 L 392.9,-842.0 L 397.1,-868.6 L 401.4,-881.8 L 405.6,-893.2 L 409.9,-908.0 L 414.1,-921.0 L 418.4,-943.5 L 422.6,-954.6 L 426.9,-972.5 L 431.1,-989.1 L 435.4,-1015.5 L 439.6,-1035.0 L 443.9,-1051.7 L 448.1,-1060.3 L 452.3,-1087.4 L 456.6,-1102.8 L 460.8,-1118.6 L 465.1,-1136.5 L 469.3,-1151.9 L 473.6,-1168.3 L 477.8,-1169.7 L 482.1,-1198.4 L 486.3,-1213.1 L 490.6,-1236.2 L 494.8,-1247.7 L 499.0,-1274.8 L 503.3,-1305.4 L 507.5,-1294.6 L 511.8,-1323.0 L 516.0,-1336.4 L 520.3,-1361.4 L 524.5,-1386.8 L 528.8,-1389.5 L 533.0,-1405.9 L 537.3,-1427.4 L 541.5,-1443.3 L 545.7,-1459.5 L 550.0,-1476.5 L 554.2,-1471.2 L 558.5,-1503.3 L 562.7,-1527.5 L 567.0,-1547.8 L 571.2,-1572.1 L 575.5,-1582.9 L 579.7,-1601.5 L 584.0,-1616.8 L 588.2,-1629.2 L 592.5,-1633.1 L 596.7,-1668.9 L 600.9,-1689.7 L 605.2,-1709.7 L 609.4,-1717.3 L 613.7,-1733.2 L 617.9,-1756.7 L 622.2,-1749.7 L 626.4,-1788.2 L 630.7,-1805.0 L 634.9,-1808.3 L 639.2,-1844.1 L 643.4,-1869.4 L 647.6,-1885.1 L 651.9,-1903.3 L 656.1,-1924.9 L 660.4,-1941.4 L 664.6,-1930.3 L 668.9,-1966.8 L 673.1,-1983.7 L 677.4,-2000.6 L 681.6,-2020.0 L 685.9,-2032.2 L 690.1,-2068.0 L 694.3,-2091.1 L 698.6,-2077.7 L 702.8,-2123.8 L 707.1,-2134.3 L 711.3,-2161.3 L 715.6,-2163.8 L 719.8,-2162.8 L 724.1,-2202.9 L 728.3,-2218.2 L 732.6,-2239.0 L 736.8,-2265.6 L 741.1,-2280.3 L 745.3,-2318.4 L 749.5,-2452.5 L 753.8,-2327.0 L 758.0,-2363.2 L 762.3,-2351.8 L 766.5,-2403.8 L 770.8,-2406.0 L 775.0,-2425.3 L 779.3,-2715.3 L 783.5,-2448.3 L 787.8,-2758.2 L 792.0,-2651.9 " style="stroke: #ff00ff; fill: none; stroke-width: 3" />
<path d=" M 53.2,483.1 L 57.5,483.2 L 61.7,480.5 L 66.0,477.4 L 70.2,472.6 L 74.5,464.9 L 78.7,449.4 L 83.0,427.5 L 87.2,391.3 L 91.5,333.8 L 95.7,242.5 L 99.9,91.6 L 104.2,-161.4 L 108.4,-542.8 L 112.7,-1176.6 L 116.9,-2207.5 L 121.2,-3871.4 L 125.4,-6561.1 L 129.7,-10931.4 " style="stroke: #008000; fill: none; stroke-width: 3" />
<path d=" M 53.2,483.2 L 57.5,483.2 L 61.7,483.2 L 66.0,483.2 L 70.2,483.2 L 74.5,483.2 L 78.7,482.4 L 83.0,483.2 L 87.2,483.3 L 91.5,457.2 L 95.7,462.8 L 99.9,457.2 L 104.2,462.8 L 108.4,461.3 L 112.7,462.7 L 116.9,461.2 L 121.2,462.8 L 125.4,457.9 L 129.7,437.5 L 133.9,433.7 L 138.2,416.9 L 142.4,413.5 L 146.7,414.1 L 150.9,413.4 L 155.1,415.7 L 159.4,413.1 L 163.6,418.4 L 167.9,412.7 L 172.1,414.4 L 176.4,412.4 L 180.6,414.4 L 184.9,410.8 L 189.1,417.4 L 193.4,416.4 L 197.6,413.9 L 201.8,413.9 L 206.1,386.4 L 210.3,386.7 L 214.6,363.4 L 218.8,359.7 L 223.1,340.7 L 227.3,337.5 L 231.6,323.7 L 235.8,320.0 L 240.1,321.5 L 244.3,320.5 L 248.5,322.6 L 252.8,320.7 L 257.0,324.9 L 261.3,319.5 L 265.5,324.9 L 269.8,321.0 L 274.0,323.1 L 278.3,322.9 L 282.5,324.9 L 286.8,319.9 L 291.0,320.6 L 295.3,315.4 L 299.5,318.5 L 303.7,317.5 L 308.0,316.8 L 312.2,313.7 L 316.5,318.5 L 320.7,316.7 L 325.0,320.6 L 329.2,321.0 L 333.5,327.8 L 337.7,327.1 L 342.0,323.3 L 346.2,317.7 L 350.4,320.2 L 354.7,317.8 L 358.9,293.1 L 363.2,291.5 L 367.4,268.4 L 371.7,268.9 L 375.9,242.6 L 380.2,240.5 L 384.4,216.7 L 388.7,212.7 L 392.9,198.8 L 397.1,194.6 L 401.4,177.0 L 405.6,175.1 L 409.9,156.9 L 414.1,157.7 L 418.4,141.1 L 422.6,139.9 L 426.9,138.7 L 431.1,137.2 L 435.4,137.4 L 439.6,137.0 L 443.9,139.8 L 448.1,139.4 L 452.3,136.3 L 456.6,131.1 L 460.8,134.5 L 465.1,131.0 L 469.3,133.9 L 473.6,126.9 L 477.8,134.2 L 482.1,127.3 L 486.3,137.2 L 490.6,132.9 L 494.8,136.2 L 499.0,134.8 L 503.3,137.0 L 507.5,133.2 L 511.8,139.0 L 516.0,135.4 L 520.3,137.3 L 524.5,139.2 L 528.8,134.7 L 533.0,132.2 L 537.3,131.4 L 541.5,129.2 L 545.7,128.3 L 550.0,122.3 L 554.2,128.5 L 558.5,124.7 L 562.7,124.2 L 567.0,121.1 L 571.2,126.3 L 575.5,126.2 L 579.7,124.7 L 584.0,123.8 L 588.2,129.7 L 592.5,130.0 L 596.7,128.9 L 600.9,122.0 L 605.2,133.5 L 609.4,125.2 L 613.7,137.5 L 617.9,134.2 L 622.2,144.1 L 626.4,143.6 L 630.7,139.9 L 634.9,134.3 L 639.2,131.9 L 643.4,126.0 L 647.6,124.7 L 651.9,127.8 L 656.1,124.0 L 660.4,120.7 L 664.6,99.3 L 668.9,95.8 L 673.1,75.5 L 677.4,71.9 L 681.6,51.1 L 685.9,51.3 L 690.1,25.5 L 694.3,21.6 L 698.6,4.6 L 702.8,2.6 L 707.1,-22.4 L 711.3,-23.3 L 715.6,-47.5 L 719.8,-49.0 L 724.1,-76.2 L 728.3,-82.3 L 732.6,-101.6 L 736.8,-102.2 L 741.1,-114.9 L 745.3,-119.2 L 749.5,-138.3 L 753.8,-135.9 L 758.0,-157.0 L 762.3,-160.6 L 766.5,-173.9 L 770.8,-183.3 L 775.0,-200.3 L 779.3,-198.0 L 783.5,-212.4 L 787.8,-213.1 L 792.0,-229.2 " style="stroke: #0000ff; fill: none; stroke-width: 3" />
<path d=" M 53.2,483.3 L 57.5,483.3 L 61.7,483.3 L 66.0,483.3 L 70.2,483.2 L 74.5,483.2 L 78.7,482.5 L 83.0,483.2 L 87.2,483.3 L 91.5,478.4 L 95.7,476.6 L 99.9,472.2 L 104.2,476.5 L 108.4,476.5 L 112.7,476.1 L 116.9,476.4 L 121.2,476.5 L 125.4,473.0 L 129.7,471.5 L 133.9,461.5 L 138.2,457.6 L 142.4,459.8 L 146.7,463.1 L 150.9,458.6 L 155.1,458.4 L 159.4,462.6 L 163.6,457.1 L 167.9,453.7 L 172.1,442.6 L 176.4,429.1 L 180.6,427.4 L 184.9,431.9 L 189.1,428.7 L 193.4,428.4 L 197.6,429.0 L 201.8,426.7 L 206.1,420.8 L 210.3,404.7 L 214.6,376.7 L 218.8,360.7 L 223.1,365.8 L 227.3,366.4 L 231.6,365.4 L 235.8,363.9 L 240.1,361.6 L 244.3,355.7 L 248.5,336.4 L 252.8,292.6 L 257.0,250.9 L 261.3,238.9 L 265.5,243.2 L 269.8,242.5 L 274.0,244.3 L 278.3,236.1 L 282.5,224.9 L 286.8,202.3 L 291.0,135.7 L 295.3,51.4 L 299.5,0.9 L 303.7,-9.5 L 308.0,-5.8 L 312.2,-3.8 L 316.5,-12.4 L 320.7,-27.8 " style="stroke: #dc143c; fill: none; stroke-width: 3" />
<path d=" M 53.2,481.6 L 57.5,481.7 L 61.7,481.6 L 66.0,481.6 L 70.2,481.6 L 74.5,481.6 L 78.7,480.9 L 83.0,481.7 L 87.2,481.8 L 91.5,481.5 L 95.7,481.5 L 99.9,481.6 L 104.2,481.5 L 108.4,481.6 L 112.7,481.6 L 116.9,481.7 L 121.2,481.6 L 125.4,481.6 L 129.7,481.7 L 133.9,481.6 L 138.2,481.7 L 142.4,481.3 L 146.7,481.6 L 150.9,481.6 L 155.1,481.6 L 159.4,481.7 L 163.6,481.7 L 167.9,481.7 L 172.1,481.7 L 176.4,481.7 L 180.6,481.7 L 184.9,481.7 L 189.1,481.7 L 193.4,481.7 L 197.6,481.7 L 201.8,481.7 L 206.1,481.5 L 210.3,481.5 L 214.6,481.6 L 218.8,453.0 L 223.1,458.7 L 227.3,454.0 L 231.6,458.7 L 235.8,457.5 L 240.1,458.6 L 244.3,457.5 L 248.5,458.9 L 252.8,452.9 L 257.0,458.1 L 261.3,452.5 L 265.5,457.7 L 269.8,455.8 L 274.0,457.6 L 278.3,455.6 L 282.5,457.2 L 286.8,455.6 L 291.0,457.6 L 295.3,452.3 L 299.5,454.4 L 303.7,452.4 L 308.0,453.4 L 312.2,449.5 L 316.5,457.6 L 320.7,455.7 L 325.0,457.6 L 329.2,455.8 L 333.5,457.4 L 337.7,455.6 L 342.0,457.5 L 346.2,451.7 L 350.4,457.6 L 354.7,451.7 L 358.9,457.4 L 363.2,455.2 L 367.4,457.0 L 371.7,455.1 L 375.9,457.0 L 380.2,450.3 L 384.4,427.1 L 388.7,423.1 L 392.9,405.0 L 397.1,402.4 L 401.4,405.0 L 405.6,402.0 L 409.9,403.8 L 414.1,403.5 L 418.4,408.7 L 422.6,403.8 L 426.9,404.3 L 431.1,403.1 L 435.4,404.2 L 439.6,400.0 L 443.9,408.6 L 448.1,406.1 L 452.3,402.3 L 456.6,399.9 L 460.8,400.3 L 465.1,398.6 L 469.3,400.0 L 473.6,395.2 L 477.8,400.6 L 482.1,394.6 L 486.3,404.2 L 490.6,402.1 L 494.8,403.7 L 499.0,402.1 L 503.3,404.1 L 507.5,398.3 L 511.8,403.4 L 516.0,398.2 L 520.3,403.9 L 524.5,402.1 L 528.8,403.8 L 533.0,401.7 L 537.3,399.5 L 541.5,397.6 L 545.7,396.2 L 550.0,392.2 L 554.2,395.8 L 558.5,393.4 L 562.7,394.3 L 567.0,390.1 L 571.2,394.3 L 575.5,392.5 L 579.7,396.5 L 584.0,394.6 L 588.2,402.6 L 592.5,401.2 L 596.7,402.9 L 600.9,396.9 L 605.2,403.0 L 609.4,396.3 L 613.7,402.2 L 617.9,400.3 L 622.2,402.7 L 626.4,401.1 L 630.7,402.6 L 634.9,396.8 L 639.2,398.3 L 643.4,391.3 L 647.6,395.7 L 651.9,394.6 L 656.1,394.2 L 660.4,392.6 L 664.6,395.6 L 668.9,392.3 L 673.1,399.1 L 677.4,392.4 L 681.6,395.4 L 685.9,393.6 L 690.1,395.1 L 694.3,389.5 L 698.6,398.8 L 702.8,396.1 L 707.1,393.9 L 711.3,391.4 L 715.6,366.2 L 719.8,364.9 L 724.1,338.3 L 728.3,332.8 L 732.6,315.4 L 736.8,308.7 L 741.1,292.7 L 745.3,290.4 L 749.5,294.9 L 753.8,293.3 L 758.0,293.9 L 762.3,287.7 L 766.5,293.8 L 770.8,288.1 L 775.0,278.4 L 779.3,290.3 L 783.5,297.7 L 787.8,293.8 L 792.0,298.4 " style="stroke: #ffd700; fill: none; stroke-width: 3" />
</g>
<path d=" M 49.0,498.0 H 792.0 M 49.0,498.0 V 10.0 " style="stroke: Black; fill: none; stroke-width: 3" />
<path d=" M 155.1,498.0 V 10.0 M 261.3,498.0 V 10.0 M 367.4,498.0 V 10.0 M 473.6,498.0 V 10.0 M 579.7,498.0 V 10.0 M 685.9,498.0 V 10.0 M 792.0,498.0 V 10.0 " style="stroke: Silver; fill: none; stroke-width: 1" />
<text x="155.14285714285714" y="518.0" style="text-anchor: middle; font-size: 10px">25</text>
<text x="261.2857142857143" y="518.0" style="text-anchor: middle; font-size: 10px">50</text>
<text x="367.42857142857144" y="518.0" style="text-anchor: middle; font-size: 10px">75</text>
<text x="473.57142857142856" y="518.0" style="text-anchor: middle; font-size: 10px">100</text>
<text x="579.7142857142857" y="518.0" style="text-anchor: middle; font-size: 10px">125</text>
<text x="685.8571428571429" y="518.0" style="text-anchor: middle; font-size: 10px">150</text>
<text x="792.0" y="518.0" style="text-anchor: middle; font-size: 10px">175</text>
<path d=" M 49.0,437.0 H 792.0 M 49.0,376.0 H 792.0 M 49.0,315.0 H 792.0 M 49.0,254.0 H 792.0 M 49.0,193.0 H 792.0 M 49.0,132.0 H 792.0 M 49.0,71.0 H 792.0 M 49.0,10.0 H 792.0 " style="stroke: Silver; fill: none; stroke-width: 1" />
<text x="47.0" y="437.0" dominant-baseline="middle" style="text-anchor: end; font-size: 10px">1000</text>
<text x="47.0" y="376.0" dominant-baseline="middle" style="text-anchor: end; font-size: 10px">2000</text>
<text x="47.0" y="315.0" dominant-baseline="middle" style="text-anchor: end; font-size: 10px">3000</text>
<text x="47.0" y="254.0" dominant-baseline="middle" style="text-anchor: end; font-size: 10px">4000</text>
<text x="47.0" y="193.0" dominant-baseline="middle" style="text-anchor: end; font-size: 10px">5000</text>
<text x="47.0" y="132.0" dominant-baseline="middle" style="text-anchor: end; font-size: 10px">6000</text>
<text x="47.0" y="71.0" dominant-baseline="middle" style="text-anchor: end; font-size: 10px">7000</text>
<text x="47.0" y="10.0" dominant-baseline="middle" style="text-anchor: end; font-size: 10px">8000</text>
<text x="420.5" y="530.0" style="text-anchor: middle; font-size: 12px">Fibonacci Number</text>
<text x="17.0" y="254.0" style="writing-mode: tb; text-anchor: middle; font-size: 12px">Time (nS)</text>
<text x="400.0" y="555.0" style="text-anchor: middle; font-size: 13px"><tspan dx="13px" fill="violet">Array</tspan><tspan dx="13px" fill="#ff0000">Binet</tspan><tspan dx="13px" fill="#00ffff">Binet2</tspan><tspan dx="13px" fill="#ff00ff">Iterative</tspan><tspan dx="13px" fill="#008000">Recursive</tspan><tspan dx="13px" fill="#0000ff">Recursive2</tspan><tspan dx="13px" fill="#dc143c">Recursive10</tspan><tspan dx="13px" fill="#ffd700">Hybrid</tspan></text>
<text x="400" y="595.0" style="text-anchor: middle; font-size: 25px">Fibonacci Implementation timings</text>
</svg>
