<?xml version="1.0" encoding="UTF-8" standalone="no"?>
<svg id="ID-691a39" width="800" height="600" xmlns="http://www.w3.org/2000/svg">
<!--
    Created by csv2: 6.0.0 (main:893) https://github.com/msalmonse/csv2.git
  -->
<defs>
<clipPath id="plotable">
<rect x="58.0" y="1.0" width="643.0" height="519.5" rx="0.0"  />
</clipPath>
</defs>
<style>
svg#ID-691a39 { background-color: clear }
#ID-691a39 path.lightBG { fill: rgba(220,220,220,0.667) }
#ID-691a39 path.midBG { fill: rgba(120,120,120,0.667) }
#ID-691a39 path.darkBG { fill: rgba(35,35,35,0.667) }
#ID-691a39 g.plotarea { opacity: 1.0 }
#ID-691a39 g.plotarea path:hover { stroke-width: 5.0 }
#ID-691a39 path { stroke-width: 2.0; fill: none; stroke-linecap: round }
#ID-691a39 path.black { stroke: black }
#ID-691a39 path.black.fill { fill: black; stroke: black }
#ID-691a39 path.axes { stroke: rgba(0,0,0,1.000) }
#ID-691a39 path.xlabel, #ID-691a39 path.ylabel { stroke: rgba(0,0,0,0.400); stroke-width: 1 }
#ID-691a39 path.ylabel { stroke: rgba(0,0,0,0.400); stroke-width: 1 }
#ID-691a39 text { font-family: Helvetica }
#ID-691a39 text.draft { fill: none; stroke: rgba(0,0,0,1.000); font-family: sans-serif; font-size: 200.0px; text-anchor: middle; dominant-baseline: middle }
#ID-691a39 text.legend { fill: rgba(0,0,0,1.000); stroke: rgba(0,0,0,1.000);  font-size: 13.0px; text-anchor: start;  }
#ID-691a39 text.legendheadline { fill: ; stroke: ;  font-size: 16.2px; text-anchor: start;  }
#ID-691a39 text.pielabel { fill: rgba(0,0,0,1.000); stroke: rgba(0,0,0,1.000);  font-size: 10.0px; text-anchor: ;  }
#ID-691a39 text.pielabel.start { fill: rgba(0,0,0,1.000); stroke: rgba(0,0,0,1.000);  font-size: 10.0px; text-anchor: start;  }
#ID-691a39 text.pielabel.middle { fill: rgba(0,0,0,1.000); stroke: rgba(0,0,0,1.000);  font-size: 10.0px; text-anchor: middle;  }
#ID-691a39 text.pielabel.end { fill: rgba(0,0,0,1.000); stroke: rgba(0,0,0,1.000);  font-size: 10.0px; text-anchor: end;  }
#ID-691a39 text.pielegend { fill: rgba(0,0,0,1.000); stroke: rgba(0,0,0,1.000);  font-size: 20.0px; text-anchor: middle;  }
#ID-691a39 text.piesublegend { fill: rgba(0,0,0,1.000); stroke: rgba(0,0,0,1.000);  font-size: 12.5px; text-anchor: middle;  }
#ID-691a39 text.subtitle { fill: rgba(0,0,0,1.000); stroke: rgba(0,0,0,1.000);  font-size: 15.0px; text-anchor: middle;  }
#ID-691a39 text.title { fill: rgba(0,0,0,1.000); stroke: rgba(0,0,0,1.000);  font-size: 25.0px; text-anchor: middle;  }
#ID-691a39 text.xlabel { fill: rgba(0,0,0,1.000); stroke: rgba(0,0,0,1.000);  font-size: 10.0px; text-anchor: middle;  }
#ID-691a39 text.xtags { fill: rgba(0,0,0,1.000); stroke: rgba(0,0,0,1.000);  font-size: 12.0px; text-anchor: middle;  }
#ID-691a39 text.xtitle { fill: rgba(0,0,0,1.000); stroke: rgba(0,0,0,1.000);  font-size: 12.0px; text-anchor: middle;  }
#ID-691a39 text.ylabel { fill: rgba(0,0,0,1.000); stroke: rgba(0,0,0,1.000);  font-size: 10.0px; text-anchor: end; dominant-baseline: middle }
#ID-691a39 text.ytitle { fill: rgba(0,0,0,1.000); stroke: rgba(0,0,0,1.000);  font-size: 12.0px; text-anchor: start;  }
#ID-691a39 path.plot01 { stroke: #ff0000 }
#ID-691a39 text.plot01, #ID-691a39 rect.plot01 { font-size: 13.0px; fill: #ff0000; stroke: #ff0000 }
#ID-691a39 path.plot01.fill { stroke: none; fill: #ff0000; fill-opacity: 0.75 }
#ID-691a39 path.plot02 { stroke: #008000 }
#ID-691a39 text.plot02, #ID-691a39 rect.plot02 { font-size: 13.0px; fill: #008000; stroke: #008000 }
#ID-691a39 path.plot02.fill { stroke: none; fill: #008000; fill-opacity: 0.75 }
#ID-691a39 path.plot03 { stroke: #ff00ff }
#ID-691a39 text.plot03, #ID-691a39 rect.plot03 { font-size: 13.0px; fill: #ff00ff; stroke: #ff00ff }
#ID-691a39 path.plot03.fill { stroke: none; fill: #ff00ff; fill-opacity: 0.75 }
#ID-691a39 path.plot04 { stroke: #0000ff }
#ID-691a39 text.plot04, #ID-691a39 rect.plot04 { font-size: 13.0px; fill: #0000ff; stroke: #0000ff }
#ID-691a39 path.plot04.fill { stroke: none; fill: #0000ff; fill-opacity: 0.75 }
#ID-691a39 path.plot05 { stroke: #dc143c }
#ID-691a39 text.plot05, #ID-691a39 rect.plot05 { font-size: 13.0px; fill: #dc143c; stroke: #dc143c }
#ID-691a39 path.plot05.fill { stroke: none; fill: #dc143c; fill-opacity: 0.75 }
#ID-691a39 path.plot06 { stroke: #f4a460 }
#ID-691a39 text.plot06, #ID-691a39 rect.plot06 { font-size: 13.0px; fill: #f4a460; stroke: #f4a460 }
#ID-691a39 path.plot06.fill { stroke: none; fill: #f4a460; fill-opacity: 0.75 }
#ID-691a39 path.plot07 { stroke: #8b008b }
#ID-691a39 text.plot07, #ID-691a39 rect.plot07 { font-size: 13.0px; fill: #8b008b; stroke: #8b008b }
#ID-691a39 path.plot07.fill { stroke: none; fill: #8b008b; fill-opacity: 0.75 }
#ID-691a39 path.plot08 { stroke: #ff8c00 }
#ID-691a39 text.plot08, #ID-691a39 rect.plot08 { font-size: 13.0px; fill: #ff8c00; stroke: #ff8c00 }
#ID-691a39 path.plot08.fill { stroke: none; fill: #ff8c00; fill-opacity: 0.75 }
#ID-691a39 path.plot09 { stroke: #b1000d }
#ID-691a39 text.plot09, #ID-691a39 rect.plot09 { font-size: 13.0px; fill: #b1000d; stroke: #b1000d }
#ID-691a39 path.plot09.fill { stroke: none; fill: #b1000d; fill-opacity: 0.75 }
#ID-691a39 path.legend { stroke: rgba(0,0,0,0.400); stroke-width: 1.5 }
</style>
<text x="154.86" y="526.00" class="xlabel" >25</text>
<text x="244.71" y="526.00" class="xlabel" >50</text>
<text x="334.57" y="526.00" class="xlabel" >75</text>
<text x="424.43" y="526.00" class="xlabel" >100</text>
<text x="514.29" y="526.00" class="xlabel" >125</text>
<text x="604.14" y="526.00" class="xlabel" >150</text>
<text x="694.00" y="526.00" class="xlabel" >175</text>
<path class="xlabel" d=" M 154.9,513.5 V 8.0 M 244.7,513.5 V 8.0 M 334.6,513.5 V 8.0 M 424.4,513.5 V 8.0 M 514.3,513.5 V 8.0 M 604.1,513.5 V 8.0 M 694.0,513.5 V 8.0 " />
<text x="63.00" y="450.31" class="ylabel" >1000</text>
<text x="63.00" y="387.12" class="ylabel" >2000</text>
<text x="63.00" y="323.94" class="ylabel" >3000</text>
<text x="63.00" y="260.75" class="ylabel" >4000</text>
<text x="63.00" y="197.56" class="ylabel" >5000</text>
<text x="63.00" y="134.38" class="ylabel" >6000</text>
<text x="63.00" y="71.19" class="ylabel" >7000</text>
<text x="63.00" y="8.00" class="ylabel" >8000</text>
<path class="ylabel" d=" M 65.0,450.3 H 694.0 M 65.0,387.1 H 694.0 M 65.0,323.9 H 694.0 M 65.0,260.8 H 694.0 M 65.0,197.6 H 694.0 M 65.0,134.4 H 694.0 M 65.0,71.2 H 694.0 M 65.0,8.0 H 694.0 " />
<path class="axes" d=" M 65.0,513.5 H 694.0 M 65.0,513.5 V 8.0 " />
<g clip-path="url(#plotable)" class="plotarea">
<path class="plot02" d=" M 68.6,500.9 L 72.2,502.1 L 75.8,502.1 L 79.4,502.0 L 83.0,502.0 L 86.6,502.0 L 90.2,502.1 L 93.8,502.1 L 97.3,502.1 L 100.9,502.1 L 104.5,502.1 L 108.1,502.1 L 111.7,502.1 L 115.3,502.1 L 118.9,502.2 L 122.5,502.1 L 126.1,502.1 L 129.7,502.1 L 133.3,502.1 L 136.9,502.2 L 140.5,502.1 L 144.1,502.1 L 147.7,502.1 L 151.3,502.1 L 154.9,501.9 L 158.5,502.0 L 162.0,502.0 L 165.6,501.9 L 169.2,502.0 L 172.8,502.1 L 176.4,501.9 L 180.0,501.9 L 183.6,502.0 L 187.2,501.9 L 190.8,502.0 L 194.4,502.0 L 198.0,502.0 L 201.6,502.0 L 205.2,502.0 L 208.8,502.0 L 212.4,502.0 L 216.0,502.1 L 219.6,502.1 L 223.1,502.1 L 226.7,502.1 L 230.3,502.1 L 233.9,502.2 L 237.5,502.1 L 241.1,502.1 L 244.7,502.1 L 248.3,502.2 L 251.9,501.9 L 255.5,502.2 L 259.1,502.2 L 262.7,502.2 L 266.3,502.0 L 269.9,502.0 L 273.5,502.0 L 277.1,501.9 L 280.7,502.0 L 284.3,502.0 L 287.8,502.0 L 291.4,502.1 L 295.0,501.9 L 298.6,502.0 L 302.2,501.9 L 305.8,502.0 L 309.4,502.1 L 313.0,502.1 L 316.6,502.2 L 320.2,502.2 L 323.8,502.2 L 327.4,502.2 L 331.0,502.0 L 334.6,502.0 L 338.2,502.0 L 341.8,501.9 L 345.4,502.0 L 348.9,502.0 L 352.5,502.0 L 356.1,501.3 L 359.7,501.7 L 363.3,499.5 L 366.9,500.7 L 370.5,501.5 L 374.1,501.8 L 377.7,501.7 L 381.3,501.6 L 384.9,501.7 L 388.5,501.6 L 392.1,501.5 L 395.7,501.6 L 399.3,501.7 L 402.9,501.7 L 406.5,501.7 L 410.1,501.7 L 413.6,501.9 L 417.2,502.0 L 420.8,501.9 L 424.4,502.0 L 428.0,502.0 L 431.6,502.0 L 435.2,502.0 L 438.8,501.9 L 442.4,502.0 L 446.0,502.0 L 449.6,502.0 L 453.2,502.0 L 456.8,502.0 L 460.4,502.0 L 464.0,502.0 L 467.6,502.0 L 471.2,502.0 L 474.7,502.0 L 478.3,501.9 L 481.9,501.9 L 485.5,501.9 L 489.1,502.0 L 492.7,502.0 L 496.3,501.9 L 499.9,502.1 L 503.5,502.1 L 507.1,502.1 L 510.7,502.1 L 514.3,502.1 L 517.9,502.0 L 521.5,502.0 L 525.1,502.0 L 528.7,502.0 L 532.3,502.1 L 535.9,502.1 L 539.4,502.2 L 543.0,502.1 L 546.6,502.1 L 550.2,502.1 L 553.8,502.2 L 557.4,502.2 L 561.0,502.1 L 564.6,502.1 L 568.2,502.2 L 571.8,502.1 L 575.4,502.0 L 579.0,502.2 L 582.6,502.2 L 586.2,502.2 L 589.8,502.2 L 593.4,502.2 L 597.0,502.2 L 600.5,502.2 L 604.1,502.2 L 607.7,502.1 L 611.3,502.1 L 614.9,502.0 L 618.5,502.1 L 622.1,502.1 L 625.7,502.1 L 629.3,502.1 L 632.9,502.1 L 636.5,502.0 L 640.1,502.0 L 643.7,502.0 L 647.3,502.0 L 650.9,501.9 L 654.5,502.0 L 658.1,502.0 L 661.7,502.0 L 665.2,502.0 L 668.8,501.9 L 672.4,502.0 L 676.0,498.7 L 679.6,501.6 L 683.2,501.9 L 686.8,501.9 L 690.4,502.0 L 694.0,501.9 " />
<path class="plot02" d="  " />
<path class="plot03" d=" M 68.6,488.5 L 72.2,488.2 L 75.8,488.8 L 79.4,488.9 L 83.0,488.2 L 86.6,488.9 L 90.2,488.9 L 93.8,489.7 L 97.3,489.1 L 100.9,489.2 L 104.5,489.3 L 108.1,489.0 L 111.7,489.2 L 115.3,489.0 L 118.9,488.9 L 122.5,489.0 L 126.1,489.0 L 129.7,489.2 L 133.3,489.3 L 136.9,489.5 L 140.5,489.2 L 144.1,489.2 L 147.7,489.5 L 151.3,488.7 L 154.9,488.9 L 158.5,489.4 L 162.0,489.2 L 165.6,489.3 L 169.2,489.6 L 172.8,488.8 L 176.4,489.0 L 180.0,489.6 L 183.6,489.5 L 187.2,488.7 L 190.8,488.5 L 194.4,489.0 L 198.0,489.3 L 201.6,489.4 L 205.2,489.3 L 208.8,489.2 L 212.4,489.4 L 216.0,490.5 L 219.6,490.4 L 223.1,487.8 L 226.7,489.1 L 230.3,489.7 L 233.9,489.0 L 237.5,490.2 L 241.1,489.2 L 244.7,489.9 L 248.3,489.1 L 251.9,486.6 L 255.5,488.4 L 259.1,489.4 L 262.7,489.3 L 266.3,489.8 L 269.9,487.9 L 273.5,489.0 L 277.1,488.4 L 280.7,488.6 L 284.3,490.1 L 287.8,489.7 L 291.4,489.2 L 295.0,489.2 L 298.6,489.2 L 302.2,488.8 L 305.8,490.0 L 309.4,489.1 L 313.0,489.0 " />
<path class="plot03" d="  " />
<path class="plot04" d=" M 68.6,488.4 L 72.2,488.7 L 75.8,488.1 L 79.4,488.3 L 83.0,488.4 L 86.6,488.7 L 90.2,488.3 L 93.8,489.2 L 97.3,488.8 L 100.9,489.1 L 104.5,487.9 L 108.1,488.1 L 111.7,488.7 L 115.3,488.7 L 118.9,488.4 L 122.5,488.4 L 126.1,488.7 L 129.7,488.2 L 133.3,488.5 L 136.9,488.9 L 140.5,488.9 L 144.1,488.9 L 147.7,488.1 L 151.3,488.8 L 154.9,487.1 L 158.5,489.1 L 162.0,488.9 L 165.6,488.6 L 169.2,489.4 L 172.8,488.4 L 176.4,488.6 L 180.0,488.9 L 183.6,488.5 L 187.2,488.8 L 190.8,488.2 L 194.4,487.9 L 198.0,489.1 L 201.6,489.3 L 205.2,488.9 L 208.8,488.9 L 212.4,489.4 L 216.0,489.9 L 219.6,490.0 L 223.1,489.9 L 226.7,489.6 L 230.3,489.7 L 233.9,488.9 L 237.5,489.9 L 241.1,489.8 L 244.7,489.5 L 248.3,489.0 L 251.9,488.7 L 255.5,488.4 L 259.1,488.9 L 262.7,489.1 L 266.3,489.8 L 269.9,488.9 L 273.5,489.3 L 277.1,488.9 L 280.7,489.0 L 284.3,489.8 L 287.8,489.4 L 291.4,489.3 L 295.0,490.1 L 298.6,489.6 L 302.2,489.3 L 305.8,488.2 L 309.4,490.2 L 313.0,489.5 " />
<path class="plot04" d="  " />
<path class="plot05" d=" M 68.6,502.9 L 72.2,483.3 L 75.8,471.2 L 79.4,459.4 L 83.0,448.6 L 86.6,439.0 L 90.2,428.5 L 93.8,416.0 L 97.3,403.6 L 100.9,391.6 L 104.5,378.9 L 108.1,369.1 L 111.7,358.0 L 115.3,347.3 L 118.9,337.2 L 122.5,322.9 L 126.1,306.6 L 129.7,293.9 L 133.3,286.4 L 136.9,275.3 L 140.5,264.2 L 144.1,253.4 L 147.7,241.9 L 151.3,227.2 L 154.9,216.7 L 158.5,210.1 L 162.0,191.5 L 165.6,181.1 L 169.2,174.1 L 172.8,155.7 L 176.4,143.0 L 180.0,127.1 L 183.6,114.2 L 187.2,103.2 L 190.8,91.2 L 194.4,79.1 L 198.0,67.6 L 201.6,56.5 L 205.2,45.4 L 208.8,33.8 L 212.4,31.0 L 216.0,19.7 L 219.6,8.8 L 223.1,-2.6 L 226.7,-12.6 L 230.3,-28.4 L 233.9,-41.1 L 237.5,-52.3 L 241.1,-64.8 L 244.7,-77.0 L 248.3,-98.2 L 251.9,-111.1 L 255.5,-110.6 L 259.1,-127.6 L 262.7,-138.2 L 266.3,-149.6 L 269.9,-176.1 L 273.5,-187.3 L 277.1,-201.3 L 280.7,-209.5 L 284.3,-224.7 L 287.8,-238.9 L 291.4,-236.5 L 295.0,-246.2 L 298.6,-274.9 L 302.2,-289.8 L 305.8,-296.2 L 309.4,-297.2 L 313.0,-300.0 L 316.6,-300.0 M 320.2,-300.0 M 323.8,-300.0 M 327.4,-300.0 M 331.0,-300.0 M 334.6,-300.0 M 338.2,-300.0 M 341.8,-300.0 M 345.4,-300.0 M 348.9,-300.0 M 352.5,-300.0 M 356.1,-300.0 M 359.7,-300.0 M 363.3,-300.0 M 366.9,-300.0 M 370.5,-300.0 M 374.1,-300.0 M 377.7,-300.0 M 381.3,-300.0 M 384.9,-300.0 M 388.5,-300.0 M 392.1,-300.0 M 395.7,-300.0 M 399.3,-300.0 M 402.9,-300.0 M 406.5,-300.0 M 410.1,-300.0 M 413.6,-300.0 M 417.2,-300.0 M 420.8,-300.0 M 424.4,-300.0 M 428.0,-300.0 M 431.6,-300.0 M 435.2,-300.0 M 438.8,-300.0 M 442.4,-300.0 M 446.0,-300.0 M 449.6,-300.0 M 453.2,-300.0 M 456.8,-300.0 M 460.4,-300.0 M 464.0,-300.0 M 467.6,-300.0 M 471.2,-300.0 M 474.7,-300.0 M 478.3,-300.0 M 481.9,-300.0 M 485.5,-300.0 M 489.1,-300.0 M 492.7,-300.0 M 496.3,-300.0 M 499.9,-300.0 M 503.5,-300.0 M 507.1,-300.0 M 510.7,-300.0 M 514.3,-300.0 M 517.9,-300.0 M 521.5,-300.0 M 525.1,-300.0 M 528.7,-300.0 M 532.3,-300.0 M 535.9,-300.0 M 539.4,-300.0 M 543.0,-300.0 M 546.6,-300.0 M 550.2,-300.0 M 553.8,-300.0 M 557.4,-300.0 M 561.0,-300.0 M 564.6,-300.0 M 568.2,-300.0 M 571.8,-300.0 M 575.4,-300.0 M 579.0,-300.0 M 582.6,-300.0 M 586.2,-300.0 M 589.8,-300.0 M 593.4,-300.0 M 597.0,-300.0 M 600.5,-300.0 M 604.1,-300.0 M 607.7,-300.0 M 611.3,-300.0 M 614.9,-300.0 M 618.5,-300.0 M 622.1,-300.0 M 625.7,-300.0 M 629.3,-300.0 M 632.9,-300.0 M 636.5,-300.0 M 640.1,-300.0 M 643.7,-300.0 M 647.3,-300.0 M 650.9,-300.0 M 654.5,-300.0 M 658.1,-300.0 M 661.7,-300.0 M 665.2,-300.0 M 668.8,-300.0 M 672.4,-300.0 M 676.0,-300.0 M 679.6,-300.0 M 683.2,-300.0 M 686.8,-300.0 M 690.4,-300.0 M 694.0,-300.0 " />
<path class="plot05" d="  " />
<path class="plot06" d=" M 68.6,502.7 L 72.2,502.7 L 75.8,499.2 L 79.4,495.8 L 83.0,489.1 L 86.6,478.8 L 90.2,462.0 L 93.8,435.2 L 97.3,393.6 L 100.9,329.7 L 104.5,223.5 L 108.1,49.5 L 111.7,-231.7 L 115.3,-300.0 L 118.9,-300.0 M 122.5,-300.0 M 126.1,-300.0 M 129.7,-300.0 M 133.3,-300.0 " />
<path class="plot06" d="  " />
<path class="plot07" d=" M 68.6,503.0 L 72.2,503.0 L 75.8,502.8 L 79.4,502.8 L 83.0,502.8 L 86.6,502.9 L 90.2,502.9 L 93.8,502.9 L 97.3,502.9 L 100.9,502.8 L 104.5,496.5 L 108.1,494.5 L 111.7,494.5 L 115.3,492.6 L 118.9,494.2 L 122.5,494.2 L 126.1,492.6 L 129.7,494.4 L 133.3,494.3 L 136.9,492.5 L 140.5,487.9 L 144.1,479.4 L 147.7,475.6 L 151.3,474.8 L 154.9,472.5 L 158.5,474.2 L 162.0,474.2 L 165.6,473.9 L 169.2,474.8 L 172.8,473.8 L 176.4,467.4 L 180.0,453.1 L 183.6,441.0 L 187.2,436.4 L 190.8,433.0 L 194.4,434.3 L 198.0,434.9 L 201.6,432.9 L 205.2,435.4 L 208.8,432.5 L 212.4,428.0 L 216.0,409.4 L 219.6,384.0 L 223.1,368.0 L 226.7,362.4 L 230.3,359.9 L 233.9,360.6 L 237.5,360.7 L 241.1,361.3 L 244.7,358.6 L 248.3,336.1 L 251.9,316.7 L 255.5,281.4 L 259.1,241.5 L 262.7,214.0 L 266.3,206.1 L 269.9,207.1 L 273.5,206.8 L 277.1,205.9 L 280.7,204.4 L 284.3,194.3 L 287.8,161.5 L 291.4,97.5 L 295.0,10.2 L 298.6,-65.1 L 302.2,-90.6 L 305.8,-97.9 L 309.4,-95.7 L 313.0,-97.7 " />
<path class="plot07" d="  " />
<path class="plot08" d=" M 68.6,502.7 L 72.2,503.0 L 75.8,502.8 L 79.4,502.8 L 83.0,492.4 L 86.6,491.1 L 90.2,492.3 L 93.8,490.6 L 97.3,481.9 L 100.9,478.3 L 104.5,470.6 L 108.1,466.7 L 111.7,470.0 L 115.3,468.2 L 118.9,469.3 L 122.5,467.4 L 126.1,458.9 L 129.7,455.3 L 133.3,446.2 L 136.9,442.8 L 140.5,434.1 L 144.1,432.2 L 147.7,422.6 L 151.3,419.3 L 154.9,421.3 L 158.5,419.2 L 162.0,422.6 L 165.6,418.7 L 169.2,419.8 L 172.8,418.4 L 176.4,418.1 L 180.0,415.4 L 183.6,409.6 L 187.2,407.1 L 190.8,397.3 L 194.4,395.7 L 198.0,384.8 L 201.6,382.9 L 205.2,373.5 L 208.8,369.5 L 212.4,362.9 L 216.0,360.2 L 219.6,353.0 L 223.1,352.1 L 226.7,342.1 L 230.3,341.1 L 233.9,330.2 L 237.5,324.5 L 241.1,328.9 L 244.7,322.9 L 248.3,321.9 L 251.9,319.3 L 255.5,328.9 L 259.1,325.1 L 262.7,325.7 L 266.3,323.6 L 269.9,325.6 L 273.5,320.5 L 277.1,323.1 L 280.7,320.0 L 284.3,322.2 L 287.8,317.6 L 291.4,318.1 L 295.0,317.4 L 298.6,313.3 L 302.2,308.6 L 305.8,306.4 L 309.4,304.8 L 313.0,295.4 L 316.6,289.8 L 320.2,283.2 L 323.8,277.3 L 327.4,270.1 L 331.0,264.5 L 334.6,257.0 L 338.2,252.7 L 341.8,242.7 L 345.4,238.9 L 348.9,228.6 " />
<path class="plot08" d="  " />
<path class="plot09" d=" M 68.6,501.3 L 72.2,501.6 L 75.8,501.4 L 79.4,501.4 L 83.0,501.6 L 86.6,501.6 L 90.2,501.6 L 93.8,501.6 L 97.3,501.6 L 100.9,501.6 L 104.5,501.6 L 108.1,501.6 L 111.7,501.6 L 115.3,501.6 L 118.9,501.6 L 122.5,501.6 L 126.1,501.6 L 129.7,501.5 L 133.3,501.6 L 136.9,501.5 L 140.5,501.6 L 144.1,501.6 L 147.7,501.5 L 151.3,501.6 L 154.9,501.6 L 158.5,501.6 L 162.0,501.5 L 165.6,501.6 L 169.2,501.5 L 172.8,501.6 L 176.4,501.3 L 180.0,501.4 L 183.6,501.2 L 187.2,501.5 L 190.8,501.5 L 194.4,501.6 L 198.0,501.4 L 201.6,501.4 L 205.2,501.6 L 208.8,484.5 L 212.4,488.9 L 216.0,484.9 L 219.6,489.0 L 223.1,487.0 L 226.7,488.7 L 230.3,487.0 L 233.9,489.0 L 237.5,484.3 L 241.1,488.2 L 244.7,483.8 L 248.3,487.9 L 251.9,485.0 L 255.5,487.8 L 259.1,485.6 L 262.7,487.8 L 266.3,485.1 L 269.9,487.7 L 273.5,483.5 L 277.1,485.9 L 280.7,483.6 L 284.3,486.0 L 287.8,481.9 L 291.4,487.6 L 295.0,485.5 L 298.6,487.7 L 302.2,485.5 L 305.8,487.7 L 309.4,485.4 L 313.0,487.8 L 316.6,483.4 L 320.2,487.7 L 323.8,482.9 L 327.4,486.9 L 331.0,484.4 L 334.6,487.1 L 338.2,484.9 L 341.8,487.1 L 345.4,482.0 L 348.9,468.8 L 352.5,464.7 L 356.1,452.1 L 359.7,450.8 L 363.3,455.5 L 366.9,450.6 L 370.5,454.5 L 374.1,452.7 L 377.7,457.6 L 381.3,453.0 L 384.9,454.0 L 388.5,452.4 L 392.1,454.4 L 395.7,450.4 L 399.3,458.1 L 402.9,454.7 L 406.5,454.2 L 410.1,449.8 L 413.6,452.6 L 417.2,450.7 L 420.8,452.5 L 424.4,447.6 L 428.0,452.3 L 431.6,447.2 L 435.2,454.0 L 438.8,451.6 L 442.4,453.7 L 446.0,451.6 L 449.6,454.2 L 453.2,448.8 L 456.8,454.2 L 460.4,448.7 L 464.0,454.0 L 467.6,451.5 L 471.2,454.1 L 474.7,451.3 L 478.3,451.5 L 481.9,448.9 L 485.5,449.5 L 489.1,445.0 L 492.7,447.8 L 496.3,447.1 L 499.9,448.7 L 503.5,444.6 L 507.1,448.5 L 510.7,446.3 L 514.3,449.2 L 517.9,446.7 L 521.5,453.2 L 525.1,450.7 L 528.7,454.1 L 532.3,448.2 L 535.9,454.2 L 539.4,448.4 L 543.0,454.1 L 546.6,451.7 L 550.2,453.8 L 553.8,451.7 L 557.4,454.2 L 561.0,448.6 L 564.6,450.8 L 568.2,445.2 L 571.8,448.4 L 575.4,446.1 L 579.0,448.2 L 582.6,445.5 L 586.2,447.8 L 589.8,444.9 L 593.4,450.1 L 597.0,444.8 L 600.5,448.5 L 604.1,445.4 L 607.7,447.9 L 611.3,442.3 L 614.9,449.1 L 618.5,446.2 L 622.1,446.4 L 625.7,444.5 L 629.3,428.6 L 632.9,426.4 L 636.5,411.4 L 640.1,407.9 L 643.7,397.0 L 647.3,392.5 L 650.9,387.2 L 654.5,384.5 L 658.1,386.2 L 661.7,383.9 L 665.2,386.4 L 668.8,381.0 L 672.4,386.6 L 676.0,361.9 L 679.6,384.7 L 683.2,384.0 L 686.8,388.1 L 690.4,386.1 L 694.0,388.6 " />
<path class="plot09" d="  " />
</g>
<text x="379.50" y="541.00" class="xtitle" >Fibonacci Number</text>
<text x="23.00" y="260.75" class="ytitle" transform="matrix(0.00,-1.00,1.00,0.00,-237.75,283.75)">Time (nS)</text>
<text x="714.00" y="63.25" class="legendheadline" >Legends:</text>
<text x="720.50" y="82.75" class="plot02" >Array</text>
<text x="720.50" y="102.25" class="plot03" >Binet1</text>
<text x="720.50" y="121.75" class="plot04" >Binet2</text>
<text x="720.50" y="141.25" class="plot05" >Iterative</text>
<text x="720.50" y="160.75" class="plot06" >Recursive</text>
<text x="720.50" y="180.25" class="plot07" >Recursive1</text>
<text x="720.50" y="199.75" class="plot08" >Recursive2</text>
<text x="720.50" y="219.25" class="plot09" >Hybrid</text>
<path class="legend" d=" M 786.0,34.0 Q 792.0,34.0, 792.0,40.0 L 792.0,232.8 Q 792.0,238.8, 786.0,238.8 L 707.0,238.8 Q 701.0,238.8, 701.0,232.8 L 701.0,40.0 Q 701.0,34.0, 707.0,34.0 Z " />
<text x="379.50" y="592.00" class="subtitle" >Created: 2022-12-29T09:55:10Z Fibonacci: 1.1.0 Time in ns</text>
<text x="379.50" y="573.00" class="title" >Fibonacci Implementation timings</text>

</svg>

