<?xml version="1.0" encoding="UTF-8" standalone="no"?>
<svg width="800" height="600" xmlns="http://www.w3.org/2000/svg">
<defs>
<clipPath id="plotable">
<rect x="52.5" y="-0.5" width="738.0" height="531.0" />
</clipPath>
</defs>
<path d=" M 63.0,520.0 H 780.0 M 63.0,520.0 V 10.0 " style="stroke: Black; fill: none; stroke-width: 3.0; stroke-linecap: round" />
<path d=" M 165.4,520.0 V 10.0 M 267.9,520.0 V 10.0 M 370.3,520.0 V 10.0 M 472.7,520.0 V 10.0 M 575.1,520.0 V 10.0 M 677.6,520.0 V 10.0 M 780.0,520.0 V 10.0 " style="stroke: Silver; fill: none; stroke-width: 1.0; stroke-linecap: round" />
<text x="165.43" y="532.50" style="text-anchor: middle; font-size: 10.0px">25</text>
<text x="267.86" y="532.50" style="text-anchor: middle; font-size: 10.0px">50</text>
<text x="370.29" y="532.50" style="text-anchor: middle; font-size: 10.0px">75</text>
<text x="472.71" y="532.50" style="text-anchor: middle; font-size: 10.0px">100</text>
<text x="575.14" y="532.50" style="text-anchor: middle; font-size: 10.0px">125</text>
<text x="677.57" y="532.50" style="text-anchor: middle; font-size: 10.0px">150</text>
<text x="780.00" y="532.50" style="text-anchor: middle; font-size: 10.0px">175</text>
<path d=" M 63.0,456.2 H 780.0 M 63.0,392.5 H 780.0 M 63.0,328.8 H 780.0 M 63.0,265.0 H 780.0 M 63.0,201.2 H 780.0 M 63.0,137.5 H 780.0 M 63.0,73.8 H 780.0 M 63.0,10.0 H 780.0 " style="stroke: Silver; fill: none; stroke-width: 1.0; stroke-linecap: round" />
<text x="60.00" y="456.25" dominant-baseline="middle" style="text-anchor: end; font-size: 10.0px">1000</text>
<text x="60.00" y="392.50" dominant-baseline="middle" style="text-anchor: end; font-size: 10.0px">2000</text>
<text x="60.00" y="328.75" dominant-baseline="middle" style="text-anchor: end; font-size: 10.0px">3000</text>
<text x="60.00" y="265.00" dominant-baseline="middle" style="text-anchor: end; font-size: 10.0px">4000</text>
<text x="60.00" y="201.25" dominant-baseline="middle" style="text-anchor: end; font-size: 10.0px">5000</text>
<text x="60.00" y="137.50" dominant-baseline="middle" style="text-anchor: end; font-size: 10.0px">6000</text>
<text x="60.00" y="73.75" dominant-baseline="middle" style="text-anchor: end; font-size: 10.0px">7000</text>
<text x="60.00" y="10.00" dominant-baseline="middle" style="text-anchor: end; font-size: 10.0px">8000</text>
<g clip-path="url(#plotable)" opacity="1.00">
<path d=" M 67.1,502.5 L 71.2,503.5 L 75.3,503.5 L 79.4,503.5 L 83.5,503.5 L 87.6,503.5 L 91.7,503.4 L 95.8,503.2 L 99.9,503.2 L 104.0,503.6 L 108.1,503.4 L 112.2,503.4 L 116.3,503.4 L 120.4,503.0 L 124.5,503.5 L 128.6,503.5 L 132.7,503.5 L 136.7,503.4 L 140.8,503.4 L 144.9,503.5 L 149.0,503.5 L 153.1,503.5 L 157.2,503.5 L 161.3,503.5 L 165.4,503.5 L 169.5,503.5 L 173.6,503.5 L 177.7,503.6 L 181.8,503.6 L 185.9,503.6 L 190.0,503.6 L 194.1,503.6 L 198.2,503.6 L 202.3,503.6 L 206.4,503.6 L 210.5,503.6 L 214.6,502.8 L 218.7,503.6 L 222.8,503.4 L 226.9,503.5 L 231.0,503.5 L 235.1,503.5 L 239.2,503.5 L 243.3,503.5 L 247.4,503.5 L 251.5,503.5 L 255.6,503.5 L 259.7,503.6 L 263.8,503.6 L 267.9,503.6 L 272.0,503.6 L 276.1,503.6 L 280.1,503.6 L 284.2,503.5 L 288.3,503.5 L 292.4,503.5 L 296.5,503.5 L 300.6,503.5 L 304.7,503.6 L 308.8,503.5 L 312.9,503.5 L 317.0,503.5 L 321.1,503.5 L 325.2,503.5 L 329.3,503.6 L 333.4,503.6 L 337.5,503.6 L 341.6,503.5 L 345.7,503.5 L 349.8,503.5 L 353.9,503.5 L 358.0,503.5 L 362.1,503.5 L 366.2,503.6 L 370.3,503.6 L 374.4,503.5 L 378.5,503.5 L 382.6,503.6 L 386.7,503.6 L 390.8,503.6 L 394.9,503.6 L 399.0,503.5 L 403.1,503.5 L 407.2,503.6 L 411.3,503.6 L 415.4,503.5 L 419.5,503.5 L 423.5,503.5 L 427.6,503.6 L 431.7,503.6 L 435.8,503.5 L 439.9,503.4 L 444.0,503.5 L 448.1,503.5 L 452.2,503.5 L 456.3,503.5 L 460.4,503.5 L 464.5,503.5 L 468.6,503.5 L 472.7,503.5 L 476.8,503.5 L 480.9,503.6 L 485.0,503.6 L 489.1,503.5 L 493.2,503.6 L 497.3,503.5 L 501.4,503.5 L 505.5,503.5 L 509.6,503.6 L 513.7,503.5 L 517.8,503.5 L 521.9,503.5 L 526.0,503.6 L 530.1,503.6 L 534.2,503.5 L 538.3,503.5 L 542.4,503.5 L 546.5,503.5 L 550.6,503.5 L 554.7,503.6 L 558.8,503.6 L 562.9,503.6 L 566.9,503.6 L 571.0,503.6 L 575.1,503.6 L 579.2,503.6 L 583.3,503.5 L 587.4,503.3 L 591.5,503.6 L 595.6,503.6 L 599.7,503.5 L 603.8,503.6 L 607.9,503.6 L 612.0,503.5 L 616.1,503.5 L 620.2,503.6 L 624.3,503.5 L 628.4,503.5 L 632.5,503.6 L 636.6,503.6 L 640.7,503.5 L 644.8,503.5 L 648.9,503.5 L 653.0,503.5 L 657.1,503.5 L 661.2,503.6 L 665.3,503.6 L 669.4,503.6 L 673.5,503.6 L 677.6,503.5 L 681.7,503.5 L 685.8,503.5 L 689.9,503.5 L 694.0,503.6 L 698.1,503.6 L 702.2,503.6 L 706.3,503.6 L 710.3,503.5 L 714.4,503.6 L 718.5,503.6 L 722.6,503.6 L 726.7,503.4 L 730.8,503.5 L 734.9,503.2 L 739.0,501.7 L 743.1,503.4 L 747.2,503.5 L 751.3,503.5 L 755.4,503.5 L 759.5,503.5 L 763.6,503.6 L 767.7,501.8 L 771.8,501.7 L 775.9,503.5 L 780.0,501.7 " style="stroke: violet; fill: none; stroke-width: 3.0; stroke-linecap: round" />
<path d=" M 67.1,486.5 L 71.2,486.7 L 75.3,486.9 L 79.4,486.7 L 83.5,486.1 L 87.6,486.2 L 91.7,484.4 L 95.8,486.5 L 99.9,486.0 L 104.0,486.7 L 108.1,486.7 L 112.2,486.7 L 116.3,486.6 L 120.4,486.2 L 124.5,486.2 L 128.6,486.4 L 132.7,486.3 L 136.7,486.7 L 140.8,486.7 L 144.9,486.7 L 149.0,486.7 L 153.1,487.1 L 157.2,486.8 L 161.3,486.8 L 165.4,486.7 L 169.5,486.4 L 173.6,487.6 L 177.7,487.4 L 181.8,486.6 L 185.9,486.7 L 190.0,486.8 L 194.1,487.4 L 198.2,486.6 L 202.3,484.5 L 206.4,486.9 L 210.5,487.0 L 214.6,486.2 L 218.7,487.4 L 222.8,487.4 L 226.9,487.0 L 231.0,487.4 L 235.1,487.8 L 239.2,487.9 L 243.3,474.6 L 247.4,487.3 L 251.5,487.5 L 255.6,486.7 L 259.7,487.8 L 263.8,486.5 L 267.9,487.9 L 272.0,486.2 L 276.1,486.9 L 280.1,487.0 L 284.2,486.8 L 288.3,487.0 L 292.4,487.6 L 296.5,487.5 L 300.6,487.4 L 304.7,487.4 L 308.8,486.5 L 312.9,488.1 L 317.0,487.9 L 321.1,487.8 L 325.2,479.3 L 329.3,487.9 L 333.4,488.3 L 337.5,487.6 L 341.6,487.8 L 345.7,488.0 " style="stroke: #ff0000; fill: none; stroke-width: 3.0; stroke-linecap: round" />
<path d=" M 67.1,486.0 L 71.2,485.2 L 75.3,486.6 L 79.4,486.5 L 83.5,485.9 L 87.6,486.3 L 91.7,484.7 L 95.8,486.1 L 99.9,486.5 L 104.0,486.2 L 108.1,485.7 L 112.2,485.6 L 116.3,484.9 L 120.4,486.2 L 124.5,485.5 L 128.6,485.9 L 132.7,485.9 L 136.7,486.3 L 140.8,486.5 L 144.9,486.3 L 149.0,486.1 L 153.1,485.4 L 157.2,485.1 L 161.3,486.7 L 165.4,485.5 L 169.5,486.6 L 173.6,487.2 L 177.7,486.4 L 181.8,486.7 L 185.9,486.0 L 190.0,486.3 L 194.1,486.8 L 198.2,485.9 L 202.3,484.5 L 206.4,486.7 L 210.5,486.4 L 214.6,487.1 L 218.7,486.9 L 222.8,486.8 L 226.9,486.7 L 231.0,487.0 L 235.1,487.7 L 239.2,487.1 L 243.3,486.9 L 247.4,487.2 L 251.5,487.4 L 255.6,486.3 L 259.7,487.0 L 263.8,487.3 L 267.9,486.5 L 272.0,487.0 L 276.1,486.6 L 280.1,486.8 L 284.2,486.7 L 288.3,486.6 L 292.4,487.3 L 296.5,487.2 L 300.6,487.6 L 304.7,487.3 L 308.8,486.9 L 312.9,487.6 L 317.0,487.7 L 321.1,487.7 L 325.2,487.7 L 329.3,487.6 L 333.4,488.1 L 337.5,486.4 L 341.6,487.9 L 345.7,487.9 L 349.8,487.0 " style="stroke: #ff00ff; fill: none; stroke-width: 3.0; stroke-linecap: round" />
<path d=" M 67.1,504.4 L 71.2,479.9 L 75.3,464.2 L 79.4,447.8 L 83.5,432.4 L 87.6,416.3 L 91.7,394.7 L 95.8,383.0 L 99.9,367.6 L 104.0,349.1 L 108.1,331.5 L 112.2,314.8 L 116.3,295.4 L 120.4,283.2 L 124.5,268.3 L 128.6,247.5 L 132.7,226.7 L 136.7,210.9 L 140.8,195.1 L 144.9,178.1 L 149.0,161.8 L 153.1,146.0 L 157.2,129.0 L 161.3,112.8 L 165.4,96.5 L 169.5,84.1 L 173.6,67.1 L 177.7,49.9 L 181.8,34.0 L 185.9,18.2 L 190.0,-4.5 L 194.1,-25.7 L 198.2,-43.2 L 202.3,-78.5 L 206.4,-76.0 L 210.5,-94.1 L 214.6,-106.9 L 218.7,-133.6 L 222.8,-149.9 L 226.9,-164.1 L 231.0,-180.0 L 235.1,-190.5 L 239.2,-205.2 L 243.3,-230.3 L 247.4,-245.3 L 251.5,-265.8 L 255.6,-290.0 L 259.7,-296.8 L 263.8,-300.0 M 272.0,-300.0 M 276.1,-300.0 M 280.1,-300.0 M 284.2,-300.0 M 288.3,-300.0 M 292.4,-300.0 M 296.5,-300.0 M 300.6,-300.0 M 304.7,-300.0 M 308.8,-300.0 M 312.9,-300.0 M 317.0,-300.0 M 321.1,-300.0 M 325.2,-300.0 M 329.3,-300.0 M 333.4,-300.0 M 337.5,-300.0 M 341.6,-300.0 M 345.7,-300.0 M 349.8,-300.0 M 353.9,-300.0 M 358.0,-300.0 M 362.1,-300.0 M 366.2,-300.0 M 370.3,-300.0 M 374.4,-300.0 M 378.5,-300.0 M 382.6,-300.0 M 386.7,-300.0 M 390.8,-300.0 M 394.9,-300.0 M 399.0,-300.0 M 403.1,-300.0 M 407.2,-300.0 M 411.3,-300.0 M 415.4,-300.0 M 419.5,-300.0 M 423.5,-300.0 M 427.6,-300.0 M 431.7,-300.0 M 435.8,-300.0 M 439.9,-300.0 M 444.0,-300.0 M 448.1,-300.0 M 452.2,-300.0 M 456.3,-300.0 M 460.4,-300.0 M 464.5,-300.0 M 468.6,-300.0 M 472.7,-300.0 M 476.8,-300.0 M 480.9,-300.0 M 485.0,-300.0 M 489.1,-300.0 M 493.2,-300.0 M 497.3,-300.0 M 501.4,-300.0 M 505.5,-300.0 M 509.6,-300.0 M 513.7,-300.0 M 517.8,-300.0 M 521.9,-300.0 M 526.0,-300.0 M 530.1,-300.0 M 534.2,-300.0 M 538.3,-300.0 M 542.4,-300.0 M 546.5,-300.0 M 550.6,-300.0 M 554.7,-300.0 M 558.8,-300.0 M 562.9,-300.0 M 566.9,-300.0 M 571.0,-300.0 M 575.1,-300.0 M 579.2,-300.0 M 583.3,-300.0 M 587.4,-300.0 M 591.5,-300.0 M 595.6,-300.0 M 599.7,-300.0 M 603.8,-300.0 M 607.9,-300.0 M 612.0,-300.0 M 616.1,-300.0 M 620.2,-300.0 M 624.3,-300.0 M 628.4,-300.0 M 632.5,-300.0 M 636.6,-300.0 M 640.7,-300.0 M 644.8,-300.0 M 648.9,-300.0 M 653.0,-300.0 M 657.1,-300.0 M 661.2,-300.0 M 665.3,-300.0 M 669.4,-300.0 M 673.5,-300.0 M 677.6,-300.0 M 681.7,-300.0 M 685.8,-300.0 M 689.9,-300.0 M 694.0,-300.0 M 698.1,-300.0 M 702.2,-300.0 M 706.3,-300.0 M 710.3,-300.0 M 714.4,-300.0 M 718.5,-300.0 M 722.6,-300.0 M 726.7,-300.0 M 730.8,-300.0 M 734.9,-300.0 M 739.0,-300.0 M 743.1,-300.0 M 747.2,-300.0 M 751.3,-300.0 M 755.4,-300.0 M 759.5,-300.0 M 763.6,-300.0 M 767.7,-300.0 M 771.8,-300.0 M 775.9,-300.0 M 780.0,-300.0 " style="stroke: #008000; fill: none; stroke-width: 3.0; stroke-linecap: round" />
<path d=" M 67.1,504.5 L 71.2,504.5 L 75.3,501.8 L 79.4,498.5 L 83.5,493.5 L 87.6,485.4 L 91.7,469.2 L 95.8,446.4 L 99.9,408.5 L 104.0,348.4 L 108.1,252.9 L 112.2,95.3 L 116.3,-169.1 L 120.4,-300.0 M 128.6,-300.0 M 132.7,-300.0 M 136.7,-300.0 M 140.8,-300.0 " style="stroke: #0000ff; fill: none; stroke-width: 3.0; stroke-linecap: round" />
<path d=" M 67.1,504.5 L 71.2,504.5 L 75.3,504.5 L 79.4,504.5 L 83.5,504.6 L 87.6,504.6 L 91.7,503.7 L 95.8,504.5 L 99.9,504.6 L 104.0,477.4 L 108.1,483.2 L 112.2,477.3 L 116.3,483.2 L 120.4,481.7 L 124.5,483.1 L 128.6,481.6 L 132.7,483.3 L 136.7,478.1 L 140.8,456.7 L 144.9,452.8 L 149.0,435.3 L 153.1,431.7 L 157.2,432.3 L 161.3,431.6 L 165.4,434.0 L 169.5,431.3 L 173.6,436.8 L 177.7,430.8 L 181.8,432.6 L 185.9,430.5 L 190.0,432.7 L 194.1,428.9 L 198.2,435.8 L 202.3,434.7 L 206.4,432.1 L 210.5,432.1 L 214.6,403.4 L 218.7,403.7 L 222.8,379.3 L 226.9,375.5 L 231.0,355.6 L 235.1,352.3 L 239.2,337.8 L 243.3,334.0 L 247.4,335.6 L 251.5,334.5 L 255.6,336.7 L 259.7,334.7 L 263.8,339.1 L 267.9,333.5 L 272.0,339.1 L 276.1,335.0 L 280.1,337.2 L 284.2,337.0 L 288.3,339.1 L 292.4,333.9 L 296.5,334.6 L 300.6,329.2 L 304.7,332.4 L 308.8,331.4 L 312.9,330.6 L 317.0,327.4 L 321.1,332.4 L 325.2,330.6 L 329.3,334.6 L 333.4,335.1 L 337.5,342.1 L 341.6,341.4 L 345.7,337.4 L 349.8,331.5 L 353.9,334.2 L 358.0,331.7 L 362.1,305.9 L 366.2,304.2 L 370.3,280.1 L 374.4,280.6 L 378.5,253.1 L 382.6,250.9 L 386.7,226.0 L 390.8,221.9 L 394.9,207.3 L 399.0,203.0 L 403.1,184.5 L 407.2,182.6 L 411.3,163.6 L 415.4,164.3 L 419.5,147.0 L 423.5,145.7 L 427.6,144.5 L 431.7,143.0 L 435.8,143.1 L 439.9,142.7 L 444.0,145.7 L 448.1,145.3 L 452.2,142.0 L 456.3,136.5 L 460.4,140.1 L 464.5,136.5 L 468.6,139.5 L 472.7,132.2 L 476.8,139.8 L 480.9,132.6 L 485.0,142.9 L 489.1,138.4 L 493.2,141.9 L 497.3,140.4 L 501.4,142.7 L 505.5,138.8 L 509.6,144.8 L 513.7,141.0 L 517.8,143.0 L 521.9,145.0 L 526.0,140.4 L 530.1,137.7 L 534.2,136.8 L 538.3,134.6 L 542.4,133.6 L 546.5,127.4 L 550.6,133.8 L 554.7,129.9 L 558.8,129.3 L 562.9,126.1 L 566.9,131.5 L 571.0,131.4 L 575.1,129.9 L 579.2,128.9 L 583.3,135.1 L 587.4,135.4 L 591.5,134.3 L 595.6,127.1 L 599.7,139.1 L 603.8,130.4 L 607.9,143.3 L 612.0,139.8 L 616.1,150.1 L 620.2,149.6 L 624.3,145.8 L 628.4,139.9 L 632.5,137.4 L 636.6,131.3 L 640.7,129.8 L 644.8,133.1 L 648.9,129.1 L 653.0,125.7 L 657.1,103.3 L 661.2,99.7 L 665.3,78.4 L 669.4,74.6 L 673.5,52.9 L 677.6,53.2 L 681.7,26.2 L 685.8,22.1 L 689.9,4.3 L 694.0,2.2 L 698.1,-23.8 L 702.2,-24.8 L 706.3,-50.1 L 710.3,-51.7 L 714.4,-80.0 L 718.5,-86.5 L 722.6,-106.6 L 726.7,-107.3 L 730.8,-120.5 L 734.9,-125.0 L 739.0,-145.0 L 743.1,-142.5 L 747.2,-164.5 L 751.3,-168.3 L 755.4,-182.2 L 759.5,-192.0 L 763.6,-209.8 L 767.7,-207.4 L 771.8,-222.4 L 775.9,-223.2 L 780.0,-240.0 " style="stroke: #dc143c; fill: none; stroke-width: 3.0; stroke-linecap: round" />
<path d=" M 67.1,504.6 L 71.2,504.6 L 75.3,504.6 L 79.4,504.6 L 83.5,504.6 L 87.6,504.5 L 91.7,503.8 L 95.8,504.5 L 99.9,504.6 L 104.0,499.5 L 108.1,497.6 L 112.2,493.1 L 116.3,497.5 L 120.4,497.5 L 124.5,497.1 L 128.6,497.5 L 132.7,497.5 L 136.7,493.9 L 140.8,492.3 L 144.9,481.9 L 149.0,477.8 L 153.1,480.1 L 157.2,483.6 L 161.3,478.8 L 165.4,478.6 L 169.5,483.0 L 173.6,477.2 L 177.7,473.7 L 181.8,462.1 L 185.9,448.0 L 190.0,446.2 L 194.1,450.9 L 198.2,447.6 L 202.3,447.3 L 206.4,447.9 L 210.5,445.5 L 214.6,439.3 L 218.7,422.5 L 222.8,393.2 L 226.9,376.5 L 231.0,381.8 L 235.1,382.5 L 239.2,381.4 L 243.3,379.8 L 247.4,377.4 L 251.5,371.2 L 255.6,351.1 L 259.7,305.4 L 263.8,261.7 L 267.9,249.3 L 272.0,253.7 L 276.1,253.0 L 280.1,254.8 L 284.2,246.3 L 288.3,234.6 L 292.4,210.9 L 296.5,141.3 L 300.6,53.3 L 304.7,0.4 L 308.8,-10.4 L 312.9,-6.5 L 317.0,-4.4 L 321.1,-13.5 L 325.2,-29.5 " style="stroke: #f4a460; fill: none; stroke-width: 3.0; stroke-linecap: round" />
<path d=" M 67.1,502.9 L 71.2,502.9 L 75.3,502.9 L 79.4,502.9 L 83.5,502.9 L 87.6,502.9 L 91.7,502.1 L 95.8,502.9 L 99.9,503.0 L 104.0,502.8 L 108.1,502.8 L 112.2,502.8 L 116.3,502.8 L 120.4,502.9 L 124.5,502.9 L 128.6,502.9 L 132.7,502.9 L 136.7,502.9 L 140.8,502.9 L 144.9,502.9 L 149.0,502.9 L 153.1,502.6 L 157.2,502.8 L 161.3,502.8 L 165.4,502.9 L 169.5,503.0 L 173.6,502.9 L 177.7,503.0 L 181.8,503.0 L 185.9,503.0 L 190.0,503.0 L 194.1,502.9 L 198.2,503.0 L 202.3,502.9 L 206.4,503.0 L 210.5,503.0 L 214.6,502.8 L 218.7,502.8 L 222.8,502.9 L 226.9,472.9 L 231.0,479.0 L 235.1,474.0 L 239.2,479.0 L 243.3,477.6 L 247.4,478.8 L 251.5,477.7 L 255.6,479.2 L 259.7,472.9 L 263.8,478.3 L 267.9,472.5 L 272.0,477.9 L 276.1,475.9 L 280.1,477.8 L 284.2,475.7 L 288.3,477.3 L 292.4,475.7 L 296.5,477.8 L 300.6,472.2 L 304.7,474.5 L 308.8,472.4 L 312.9,473.4 L 317.0,469.3 L 321.1,477.8 L 325.2,475.8 L 329.3,477.7 L 333.4,475.9 L 337.5,477.6 L 341.6,475.6 L 345.7,477.7 L 349.8,471.6 L 353.9,477.7 L 358.0,471.6 L 362.1,477.5 L 366.2,475.3 L 370.3,477.1 L 374.4,475.1 L 378.5,477.1 L 382.6,470.2 L 386.7,445.9 L 390.8,441.7 L 394.9,422.8 L 399.0,420.1 L 403.1,422.8 L 407.2,419.6 L 411.3,421.6 L 415.4,421.2 L 419.5,426.7 L 423.5,421.5 L 427.6,422.1 L 431.7,420.8 L 435.8,422.0 L 439.9,417.6 L 444.0,426.6 L 448.1,424.0 L 452.2,420.0 L 456.3,417.5 L 460.4,417.9 L 464.5,416.2 L 468.6,417.5 L 472.7,412.6 L 476.8,418.2 L 480.9,412.0 L 485.0,421.9 L 489.1,419.8 L 493.2,421.4 L 497.3,419.8 L 501.4,421.8 L 505.5,415.8 L 509.6,421.1 L 513.7,415.7 L 517.8,421.7 L 521.9,419.8 L 526.0,421.6 L 530.1,419.3 L 534.2,417.0 L 538.3,415.1 L 542.4,413.6 L 546.5,409.4 L 550.6,413.2 L 554.7,410.7 L 558.8,411.7 L 562.9,407.2 L 566.9,411.6 L 571.0,409.7 L 575.1,413.9 L 579.2,412.0 L 583.3,420.3 L 587.4,418.8 L 591.5,420.6 L 595.6,414.4 L 599.7,420.7 L 603.8,413.7 L 607.9,419.9 L 612.0,417.9 L 616.1,420.4 L 620.2,418.7 L 624.3,420.3 L 628.4,414.2 L 632.5,415.8 L 636.6,408.5 L 640.7,413.1 L 644.8,411.9 L 648.9,411.6 L 653.0,409.8 L 657.1,413.0 L 661.2,409.5 L 665.3,416.6 L 669.4,409.6 L 673.5,412.8 L 677.6,410.9 L 681.7,412.5 L 685.8,406.6 L 689.9,416.3 L 694.0,413.5 L 698.1,411.2 L 702.2,408.6 L 706.3,382.3 L 710.3,380.9 L 714.4,353.1 L 718.5,347.3 L 722.6,329.2 L 726.7,322.2 L 730.8,305.4 L 734.9,303.1 L 739.0,307.8 L 743.1,306.0 L 747.2,306.7 L 751.3,300.2 L 755.4,306.5 L 759.5,300.6 L 763.6,290.5 L 767.7,303.0 L 771.8,310.7 L 775.9,306.6 L 780.0,311.4 " style="stroke: #ff8c00; fill: none; stroke-width: 3.0; stroke-linecap: round" />
</g>
<text x="421.5" y="547.5" style="text-anchor: middle; font-size: 12.0px">Fibonacci Number</text>
<text x="20.0" y="265.0" style="writing-mode: tb; text-anchor: middle; font-size: 12.0px">Time (nS)</text>
<text x="400.00" y="563.75" style="text-anchor: middle; font-size: 13.0px"><tspan dx="13.0px" fill="violet">Array</tspan><tspan dx="13.0px" fill="#ff0000">Binet</tspan><tspan dx="13.0px" fill="#ff00ff">Binet2</tspan><tspan dx="13.0px" fill="#008000">Iterative</tspan><tspan dx="13.0px" fill="#0000ff">Recursive</tspan><tspan dx="13.0px" fill="#dc143c">Recursive2</tspan><tspan dx="13.0px" fill="#f4a460">Recursive10</tspan><tspan dx="13.0px" fill="#ff8c00">Hybrid</tspan></text>
<text x="400.0" y="595.0" style="text-anchor: middle; font-size: 25.0px">Fibonacci Implementation timings</text>
</svg>
