<?xml version="1.0" encoding="UTF-8" standalone="no"?>
<svg width="800" height="600" xmlns="http://www.w3.org/2000/svg">
<defs>
<clipPath id="plotable">
<rect x="52.5" y="-0.5" width="666.5" height="543.9" />
</clipPath>
</defs>
<path d=" M 63.0,532.9 H 708.5 M 63.0,532.9 V 10.0 " style="stroke: Black;fill: none;stroke-width: 3.0;stroke-linecap: round" />
<path d=" M 155.2,532.9 V 10.0 M 247.4,532.9 V 10.0 M 339.6,532.9 V 10.0 M 431.9,532.9 V 10.0 M 524.1,532.9 V 10.0 M 616.3,532.9 V 10.0 M 708.5,532.9 V 10.0 " style="stroke: Silver;fill: none;stroke-width: 1.0;stroke-linecap: round" />
<text x="155.21" y="545.42" style="text-anchor: middle; font-size: 10.0px">25</text>
<text x="247.43" y="545.42" style="text-anchor: middle; font-size: 10.0px">50</text>
<text x="339.64" y="545.42" style="text-anchor: middle; font-size: 10.0px">75</text>
<text x="431.86" y="545.42" style="text-anchor: middle; font-size: 10.0px">100</text>
<text x="524.07" y="545.42" style="text-anchor: middle; font-size: 10.0px">125</text>
<text x="616.29" y="545.42" style="text-anchor: middle; font-size: 10.0px">150</text>
<text x="708.50" y="545.42" style="text-anchor: middle; font-size: 10.0px">175</text>
<path d=" M 63.0,467.6 H 708.5 M 63.0,402.2 H 708.5 M 63.0,336.8 H 708.5 M 63.0,271.5 H 708.5 M 63.0,206.1 H 708.5 M 63.0,140.7 H 708.5 M 63.0,75.4 H 708.5 M 63.0,10.0 H 708.5 " style="stroke: Silver;fill: none;stroke-width: 1.0;stroke-linecap: round" />
<text x="60.00" y="467.55" dominant-baseline="middle" style="text-anchor: end; font-size: 10.0px">1000</text>
<text x="60.00" y="402.19" dominant-baseline="middle" style="text-anchor: end; font-size: 10.0px">2000</text>
<text x="60.00" y="336.82" dominant-baseline="middle" style="text-anchor: end; font-size: 10.0px">3000</text>
<text x="60.00" y="271.46" dominant-baseline="middle" style="text-anchor: end; font-size: 10.0px">4000</text>
<text x="60.00" y="206.09" dominant-baseline="middle" style="text-anchor: end; font-size: 10.0px">5000</text>
<text x="60.00" y="140.73" dominant-baseline="middle" style="text-anchor: end; font-size: 10.0px">6000</text>
<text x="60.00" y="75.36" dominant-baseline="middle" style="text-anchor: end; font-size: 10.0px">7000</text>
<text x="60.00" y="10.00" dominant-baseline="middle" style="text-anchor: end; font-size: 10.0px">8000</text>
<g clip-path="url(#plotable)" opacity="1.00">
<path d=" M 66.7,515.0 L 70.4,516.0 L 74.1,516.0 L 77.8,516.0 L 81.4,516.0 L 85.1,516.0 L 88.8,515.9 L 92.5,515.7 L 96.2,515.7 L 99.9,516.1 L 103.6,515.9 L 107.3,515.9 L 111.0,515.9 L 114.6,515.5 L 118.3,516.0 L 122.0,516.0 L 125.7,516.0 L 129.4,515.9 L 133.1,515.9 L 136.8,516.0 L 140.5,516.0 L 144.1,516.0 L 147.8,515.9 L 151.5,516.0 L 155.2,516.0 L 158.9,516.0 L 162.6,516.0 L 166.3,516.1 L 170.0,516.1 L 173.7,516.1 L 177.3,516.1 L 181.0,516.1 L 184.7,516.1 L 188.4,516.1 L 192.1,516.1 L 195.8,516.1 L 199.5,515.3 L 203.2,516.1 L 206.9,515.8 L 210.5,516.0 L 214.2,516.0 L 217.9,515.9 L 221.6,516.0 L 225.3,516.0 L 229.0,516.0 L 232.7,515.9 L 236.4,516.0 L 240.1,516.1 L 243.7,516.1 L 247.4,516.1 L 251.1,516.1 L 254.8,516.1 L 258.5,516.1 L 262.2,516.0 L 265.9,516.0 L 269.6,516.0 L 273.2,516.0 L 276.9,516.0 L 280.6,516.1 L 284.3,516.0 L 288.0,516.0 L 291.7,515.9 L 295.4,516.0 L 299.1,516.0 L 302.8,516.1 L 306.4,516.1 L 310.1,516.1 L 313.8,515.9 L 317.5,516.0 L 321.2,516.0 L 324.9,516.0 L 328.6,516.0 L 332.3,516.0 L 336.0,516.1 L 339.6,516.1 L 343.3,516.0 L 347.0,516.0 L 350.7,516.1 L 354.4,516.1 L 358.1,516.1 L 361.8,516.1 L 365.5,516.0 L 369.2,516.0 L 372.8,516.1 L 376.5,516.1 L 380.2,516.0 L 383.9,516.0 L 387.6,516.0 L 391.3,516.1 L 395.0,516.1 L 398.7,516.0 L 402.3,515.9 L 406.0,516.0 L 409.7,516.0 L 413.4,516.0 L 417.1,516.0 L 420.8,516.0 L 424.5,516.0 L 428.2,516.0 L 431.9,516.0 L 435.5,516.0 L 439.2,516.1 L 442.9,516.1 L 446.6,516.0 L 450.3,516.1 L 454.0,516.0 L 457.7,516.0 L 461.4,516.0 L 465.1,516.1 L 468.7,516.0 L 472.4,516.0 L 476.1,516.0 L 479.8,516.1 L 483.5,516.1 L 487.2,516.0 L 490.9,516.0 L 494.6,516.0 L 498.3,516.0 L 501.9,516.0 L 505.6,516.1 L 509.3,516.1 L 513.0,516.1 L 516.7,516.1 L 520.4,516.1 L 524.1,516.1 L 527.8,516.1 L 531.4,516.0 L 535.1,515.8 L 538.8,516.1 L 542.5,516.1 L 546.2,516.0 L 549.9,516.1 L 553.6,516.1 L 557.3,516.0 L 561.0,516.0 L 564.6,516.1 L 568.3,516.0 L 572.0,516.0 L 575.7,516.1 L 579.4,516.1 L 583.1,516.0 L 586.8,516.0 L 590.5,516.0 L 594.2,516.0 L 597.8,516.0 L 601.5,516.1 L 605.2,516.1 L 608.9,516.1 L 612.6,516.1 L 616.3,516.0 L 620.0,516.0 L 623.7,516.0 L 627.4,516.0 L 631.0,516.1 L 634.7,516.1 L 638.4,516.1 L 642.1,516.1 L 645.8,516.0 L 649.5,516.1 L 653.2,516.1 L 656.9,516.1 L 660.5,515.9 L 664.2,516.0 L 667.9,515.7 L 671.6,514.1 L 675.3,515.9 L 679.0,516.0 L 682.7,516.0 L 686.4,516.0 L 690.1,516.0 L 693.7,516.1 L 697.4,514.3 L 701.1,514.2 L 704.8,516.0 L 708.5,514.1 " style="stroke: violet;fill: none;stroke-width: 3.0;stroke-linecap: round" />
<path d=" M 66.7,498.5 L 70.4,498.7 L 74.1,498.9 L 77.8,498.7 L 81.4,498.2 L 85.1,498.3 L 88.8,496.4 L 92.5,498.6 L 96.2,498.0 L 99.9,498.8 L 103.6,498.8 L 107.3,498.8 L 111.0,498.7 L 114.6,498.3 L 118.3,498.3 L 122.0,498.5 L 125.7,498.3 L 129.4,498.8 L 133.1,498.8 L 136.8,498.8 L 140.5,498.7 L 144.1,499.2 L 147.8,498.9 L 151.5,498.9 L 155.2,498.7 L 158.9,498.5 L 162.6,499.7 L 166.3,499.5 L 170.0,498.7 L 173.7,498.7 L 177.3,498.8 L 181.0,499.5 L 184.7,498.7 L 188.4,496.5 L 192.1,499.0 L 195.8,499.1 L 199.5,498.2 L 203.2,499.5 L 206.9,499.5 L 210.5,499.1 L 214.2,499.5 L 217.9,499.9 L 221.6,500.0 L 225.3,486.3 L 229.0,499.4 L 232.7,499.6 L 236.4,498.8 L 240.1,499.9 L 243.7,498.6 L 247.4,500.0 L 251.1,498.3 L 254.8,498.9 L 258.5,499.1 L 262.2,498.8 L 265.9,499.0 L 269.6,499.7 L 273.2,499.6 L 276.9,499.5 L 280.6,499.5 L 284.3,498.6 L 288.0,500.2 L 291.7,500.0 L 295.4,499.9 L 299.1,491.2 L 302.8,500.0 L 306.4,500.4 L 310.1,499.7 L 313.8,499.9 L 317.5,500.1 " style="stroke: #ff0000;fill: none;stroke-width: 3.0;stroke-linecap: round" />
<path d=" M 66.7,498.0 L 70.4,497.3 L 74.1,498.6 L 77.8,498.6 L 81.4,498.0 L 85.1,498.3 L 88.8,496.7 L 92.5,498.2 L 96.2,498.6 L 99.9,498.3 L 103.6,497.7 L 107.3,497.7 L 111.0,496.9 L 114.6,498.2 L 118.3,497.6 L 122.0,497.9 L 125.7,497.9 L 129.4,498.4 L 133.1,498.6 L 136.8,498.3 L 140.5,498.1 L 144.1,497.4 L 147.8,497.1 L 151.5,498.8 L 155.2,497.6 L 158.9,498.7 L 162.6,499.3 L 166.3,498.4 L 170.0,498.7 L 173.7,498.0 L 177.3,498.4 L 181.0,498.8 L 184.7,498.0 L 188.4,496.5 L 192.1,498.8 L 195.8,498.5 L 199.5,499.2 L 203.2,499.0 L 206.9,498.9 L 210.5,498.8 L 214.2,499.0 L 217.9,499.8 L 221.6,499.2 L 225.3,499.0 L 229.0,499.3 L 232.7,499.5 L 236.4,498.4 L 240.1,499.0 L 243.7,499.3 L 247.4,498.6 L 251.1,499.1 L 254.8,498.6 L 258.5,498.9 L 262.2,498.8 L 265.9,498.7 L 269.6,499.4 L 273.2,499.3 L 276.9,499.7 L 280.6,499.4 L 284.3,499.0 L 288.0,499.7 L 291.7,499.8 L 295.4,499.8 L 299.1,499.8 L 302.8,499.7 L 306.4,500.2 L 310.1,498.5 L 313.8,500.0 L 317.5,500.0 L 321.2,499.0 " style="stroke: #ff00ff;fill: none;stroke-width: 3.0;stroke-linecap: round" />
<path d=" M 66.7,517.0 L 70.4,491.8 L 74.1,475.7 L 77.8,458.9 L 81.4,443.1 L 85.1,426.6 L 88.8,404.4 L 92.5,392.4 L 96.2,376.7 L 99.9,357.7 L 103.6,339.6 L 107.3,322.5 L 111.0,302.6 L 114.6,290.1 L 118.3,274.9 L 122.0,253.5 L 125.7,232.2 L 129.4,216.0 L 133.1,199.8 L 136.8,182.4 L 140.5,165.7 L 144.1,149.5 L 147.8,132.0 L 151.5,115.4 L 155.2,98.7 L 158.9,86.0 L 162.6,68.6 L 166.3,50.9 L 170.0,34.6 L 173.7,18.4 L 177.3,-4.9 L 181.0,-26.6 L 184.7,-44.6 L 188.4,-80.7 L 192.1,-78.2 L 195.8,-96.7 L 199.5,-109.9 L 203.2,-137.3 L 206.9,-153.9 L 210.5,-168.5 L 214.2,-184.8 L 217.9,-195.6 L 221.6,-210.6 L 225.3,-236.4 L 229.0,-251.8 L 232.7,-272.8 L 236.4,-297.5 L 240.1,-300.0 M 247.4,-300.0 M 251.1,-300.0 M 254.8,-300.0 M 258.5,-300.0 M 262.2,-300.0 M 265.9,-300.0 M 269.6,-300.0 M 273.2,-300.0 M 276.9,-300.0 M 280.6,-300.0 M 284.3,-300.0 M 288.0,-300.0 M 291.7,-300.0 M 295.4,-300.0 M 299.1,-300.0 M 302.8,-300.0 M 306.4,-300.0 M 310.1,-300.0 M 313.8,-300.0 M 317.5,-300.0 M 321.2,-300.0 M 324.9,-300.0 M 328.6,-300.0 M 332.3,-300.0 M 336.0,-300.0 M 339.6,-300.0 M 343.3,-300.0 M 347.0,-300.0 M 350.7,-300.0 M 354.4,-300.0 M 358.1,-300.0 M 361.8,-300.0 M 365.5,-300.0 M 369.2,-300.0 M 372.8,-300.0 M 376.5,-300.0 M 380.2,-300.0 M 383.9,-300.0 M 387.6,-300.0 M 391.3,-300.0 M 395.0,-300.0 M 398.7,-300.0 M 402.3,-300.0 M 406.0,-300.0 M 409.7,-300.0 M 413.4,-300.0 M 417.1,-300.0 M 420.8,-300.0 M 424.5,-300.0 M 428.2,-300.0 M 431.9,-300.0 M 435.5,-300.0 M 439.2,-300.0 M 442.9,-300.0 M 446.6,-300.0 M 450.3,-300.0 M 454.0,-300.0 M 457.7,-300.0 M 461.4,-300.0 M 465.1,-300.0 M 468.7,-300.0 M 472.4,-300.0 M 476.1,-300.0 M 479.8,-300.0 M 483.5,-300.0 M 487.2,-300.0 M 490.9,-300.0 M 494.6,-300.0 M 498.3,-300.0 M 501.9,-300.0 M 505.6,-300.0 M 509.3,-300.0 M 513.0,-300.0 M 516.7,-300.0 M 520.4,-300.0 M 524.1,-300.0 M 527.8,-300.0 M 531.4,-300.0 M 535.1,-300.0 M 538.8,-300.0 M 542.5,-300.0 M 546.2,-300.0 M 549.9,-300.0 M 553.6,-300.0 M 557.3,-300.0 M 561.0,-300.0 M 564.6,-300.0 M 568.3,-300.0 M 572.0,-300.0 M 575.7,-300.0 M 579.4,-300.0 M 583.1,-300.0 M 586.8,-300.0 M 590.5,-300.0 M 594.2,-300.0 M 597.8,-300.0 M 601.5,-300.0 M 605.2,-300.0 M 608.9,-300.0 M 612.6,-300.0 M 616.3,-300.0 M 620.0,-300.0 M 623.7,-300.0 M 627.4,-300.0 M 631.0,-300.0 M 634.7,-300.0 M 638.4,-300.0 M 642.1,-300.0 M 645.8,-300.0 M 649.5,-300.0 M 653.2,-300.0 M 656.9,-300.0 M 660.5,-300.0 M 664.2,-300.0 M 667.9,-300.0 M 671.6,-300.0 M 675.3,-300.0 M 679.0,-300.0 M 682.7,-300.0 M 686.4,-300.0 M 690.1,-300.0 M 693.7,-300.0 M 697.4,-300.0 M 701.1,-300.0 M 704.8,-300.0 M 708.5,-300.0 " style="stroke: #008000;fill: none;stroke-width: 3.0;stroke-linecap: round" />
<path d=" M 66.7,517.0 L 70.4,517.1 L 74.1,514.2 L 77.8,510.8 L 81.4,505.7 L 85.1,497.5 L 88.8,480.9 L 92.5,457.4 L 96.2,418.6 L 99.9,357.0 L 103.6,259.1 L 107.3,97.5 L 111.0,-173.7 L 114.6,-300.0 M 122.0,-300.0 M 125.7,-300.0 M 129.4,-300.0 M 133.1,-300.0 " style="stroke: #0000ff;fill: none;stroke-width: 3.0;stroke-linecap: round" />
<path d=" M 66.7,517.1 L 70.4,517.1 L 74.1,517.1 L 77.8,517.1 L 81.4,517.1 L 85.1,517.1 L 88.8,516.2 L 92.5,517.0 L 96.2,517.1 L 99.9,489.2 L 103.6,495.2 L 107.3,489.2 L 111.0,495.1 L 114.6,493.6 L 118.3,495.1 L 122.0,493.5 L 125.7,495.2 L 129.4,489.9 L 133.1,468.0 L 136.8,464.0 L 140.5,446.1 L 144.1,442.4 L 147.8,443.0 L 151.5,442.3 L 155.2,444.7 L 158.9,442.0 L 162.6,447.6 L 166.3,441.5 L 170.0,443.3 L 173.7,441.2 L 177.3,443.4 L 181.0,439.5 L 184.7,446.6 L 188.4,445.5 L 192.1,442.8 L 195.8,442.8 L 199.5,413.3 L 203.2,413.6 L 206.9,388.7 L 210.5,384.7 L 214.2,364.3 L 217.9,361.0 L 221.6,346.1 L 225.3,342.2 L 229.0,343.8 L 232.7,342.7 L 236.4,345.0 L 240.1,342.9 L 243.7,347.4 L 247.4,341.6 L 251.1,347.4 L 254.8,343.2 L 258.5,345.5 L 262.2,345.3 L 265.9,347.4 L 269.6,342.1 L 273.2,342.8 L 276.9,337.3 L 280.6,340.6 L 284.3,339.5 L 288.0,338.8 L 291.7,335.5 L 295.4,340.5 L 299.1,338.7 L 302.8,342.8 L 306.4,343.3 L 310.1,350.5 L 313.8,349.8 L 317.5,345.7 L 321.2,339.7 L 324.9,342.4 L 328.6,339.8 L 332.3,313.4 L 336.0,311.6 L 339.6,286.9 L 343.3,287.5 L 347.0,259.3 L 350.7,257.0 L 354.4,231.5 L 358.1,227.2 L 361.8,212.3 L 365.5,207.8 L 369.2,188.9 L 372.8,186.9 L 376.5,167.5 L 380.2,168.2 L 383.9,150.5 L 387.6,149.2 L 391.3,147.9 L 395.0,146.3 L 398.7,146.5 L 402.3,146.1 L 406.0,149.1 L 409.7,148.7 L 413.4,145.4 L 417.1,139.7 L 420.8,143.4 L 424.5,139.7 L 428.2,142.8 L 431.9,135.3 L 435.5,143.1 L 439.2,135.7 L 442.9,146.3 L 446.6,141.7 L 450.3,145.3 L 454.0,143.7 L 457.7,146.1 L 461.4,142.0 L 465.1,148.2 L 468.7,144.3 L 472.4,146.4 L 476.1,148.5 L 479.8,143.7 L 483.5,141.0 L 487.2,140.0 L 490.9,137.7 L 494.6,136.8 L 498.3,130.4 L 501.9,136.9 L 505.6,132.9 L 509.3,132.4 L 513.0,129.0 L 516.7,134.6 L 520.4,134.5 L 524.1,133.0 L 527.8,131.9 L 531.4,138.3 L 535.1,138.6 L 538.8,137.4 L 542.5,130.0 L 546.2,142.3 L 549.9,133.5 L 553.6,146.7 L 557.3,143.1 L 561.0,153.7 L 564.6,153.2 L 568.3,149.2 L 572.0,143.2 L 575.7,140.6 L 579.4,134.3 L 583.1,132.9 L 586.8,136.2 L 590.5,132.1 L 594.2,128.6 L 597.8,105.7 L 601.5,101.9 L 605.2,80.2 L 608.9,76.3 L 612.6,54.0 L 616.3,54.3 L 620.0,26.7 L 623.7,22.4 L 627.4,4.2 L 631.0,2.0 L 634.7,-24.7 L 638.4,-25.7 L 642.1,-51.6 L 645.8,-53.3 L 649.5,-82.3 L 653.2,-88.9 L 656.9,-109.6 L 660.5,-110.2 L 664.2,-123.8 L 667.9,-128.4 L 671.6,-148.9 L 675.3,-146.4 L 679.0,-168.9 L 682.7,-172.8 L 686.4,-187.0 L 690.1,-197.1 L 693.7,-215.3 L 697.4,-212.9 L 701.1,-228.3 L 704.8,-229.1 L 708.5,-246.4 " style="stroke: #dc143c;fill: none;stroke-width: 3.0;stroke-linecap: round" />
<path d=" M 66.7,517.2 L 70.4,517.2 L 74.1,517.1 L 77.8,517.2 L 81.4,517.1 L 85.1,517.1 L 88.8,516.3 L 92.5,517.1 L 96.2,517.1 L 99.9,511.9 L 103.6,509.9 L 107.3,505.3 L 111.0,509.9 L 114.6,509.9 L 118.3,509.4 L 122.0,509.8 L 125.7,509.9 L 129.4,506.2 L 133.1,504.5 L 136.8,493.8 L 140.5,489.7 L 144.1,492.0 L 147.8,495.6 L 151.5,490.7 L 155.2,490.5 L 158.9,495.0 L 162.6,489.1 L 166.3,485.5 L 170.0,473.5 L 173.7,459.1 L 177.3,457.2 L 181.0,462.1 L 184.7,458.7 L 188.4,458.3 L 192.1,459.0 L 195.8,456.5 L 199.5,450.2 L 203.2,433.0 L 206.9,402.9 L 210.5,385.7 L 214.2,391.2 L 217.9,391.9 L 221.6,390.8 L 225.3,389.2 L 229.0,386.7 L 232.7,380.4 L 236.4,359.8 L 240.1,312.8 L 243.7,268.1 L 247.4,255.3 L 251.1,259.9 L 254.8,259.2 L 258.5,261.0 L 262.2,252.2 L 265.9,240.3 L 269.6,216.0 L 273.2,144.7 L 276.9,54.4 L 280.6,0.2 L 284.3,-10.9 L 288.0,-6.9 L 291.7,-4.8 L 295.4,-14.1 L 299.1,-30.5 " style="stroke: #f4a460;fill: none;stroke-width: 3.0;stroke-linecap: round" />
<path d=" M 66.7,515.3 L 70.4,515.4 L 74.1,515.4 L 77.8,515.4 L 81.4,515.4 L 85.1,515.4 L 88.8,514.6 L 92.5,515.4 L 96.2,515.5 L 99.9,515.3 L 103.6,515.3 L 107.3,515.3 L 111.0,515.3 L 114.6,515.4 L 118.3,515.4 L 122.0,515.4 L 125.7,515.4 L 129.4,515.4 L 133.1,515.4 L 136.8,515.4 L 140.5,515.4 L 144.1,515.0 L 147.8,515.3 L 151.5,515.3 L 155.2,515.4 L 158.9,515.5 L 162.6,515.4 L 166.3,515.4 L 170.0,515.4 L 173.7,515.5 L 177.3,515.5 L 181.0,515.4 L 184.7,515.5 L 188.4,515.4 L 192.1,515.5 L 195.8,515.4 L 199.5,515.3 L 203.2,515.3 L 206.9,515.4 L 210.5,484.6 L 214.2,490.8 L 217.9,485.8 L 221.6,490.8 L 225.3,489.5 L 229.0,490.7 L 232.7,489.6 L 236.4,491.0 L 240.1,484.6 L 243.7,490.1 L 247.4,484.2 L 251.1,489.8 L 254.8,487.7 L 258.5,489.6 L 262.2,487.5 L 265.9,489.2 L 269.6,487.5 L 273.2,489.6 L 276.9,483.9 L 280.6,486.2 L 284.3,484.1 L 288.0,485.1 L 291.7,480.9 L 295.4,489.7 L 299.1,487.6 L 302.8,489.6 L 306.4,487.7 L 310.1,489.5 L 313.8,487.4 L 317.5,489.5 L 321.2,483.3 L 324.9,489.6 L 328.6,483.3 L 332.3,489.4 L 336.0,487.1 L 339.6,488.9 L 343.3,486.9 L 347.0,489.0 L 350.7,481.8 L 354.4,457.0 L 358.1,452.6 L 361.8,433.3 L 365.5,430.5 L 369.2,433.2 L 372.8,430.0 L 376.5,432.0 L 380.2,431.7 L 383.9,437.2 L 387.6,432.0 L 391.3,432.5 L 395.0,431.2 L 398.7,432.4 L 402.3,427.9 L 406.0,437.1 L 409.7,434.5 L 413.4,430.4 L 417.1,427.8 L 420.8,428.3 L 424.5,426.4 L 428.2,427.9 L 431.9,422.8 L 435.5,428.5 L 439.2,422.1 L 442.9,432.4 L 446.6,430.2 L 450.3,431.8 L 454.0,430.1 L 457.7,432.2 L 461.4,426.0 L 465.1,431.5 L 468.7,426.0 L 472.4,432.1 L 476.1,430.1 L 479.8,432.0 L 483.5,429.7 L 487.2,427.3 L 490.9,425.4 L 494.6,423.8 L 498.3,419.5 L 501.9,423.4 L 505.6,420.8 L 509.3,421.8 L 513.0,417.3 L 516.7,421.8 L 520.4,419.8 L 524.1,424.1 L 527.8,422.2 L 531.4,430.7 L 535.1,429.1 L 538.8,431.0 L 542.5,424.6 L 546.2,431.1 L 549.9,423.9 L 553.6,430.3 L 557.3,428.2 L 561.0,430.8 L 564.6,429.0 L 568.3,430.7 L 572.0,424.5 L 575.7,426.1 L 579.4,418.6 L 583.1,423.3 L 586.8,422.1 L 590.5,421.7 L 594.2,419.9 L 597.8,423.2 L 601.5,419.6 L 605.2,426.9 L 608.9,419.8 L 612.6,423.0 L 616.3,421.0 L 620.0,422.7 L 623.7,416.7 L 627.4,426.6 L 631.0,423.8 L 634.7,421.3 L 638.4,418.7 L 642.1,391.7 L 645.8,390.3 L 649.5,361.8 L 653.2,355.9 L 656.9,337.3 L 660.5,330.1 L 664.2,312.9 L 667.9,310.5 L 671.6,315.3 L 675.3,313.5 L 679.0,314.2 L 682.7,307.6 L 686.4,314.1 L 690.1,308.0 L 693.7,297.6 L 697.4,310.4 L 701.1,318.3 L 704.8,314.1 L 708.5,319.0 " style="stroke: #ff8c00;fill: none;stroke-width: 3.0;stroke-linecap: round" />
</g>
<text x="385.75" y="560.4166666666666" style="text-anchor: middle; font-size: 12.0px">
Fibonacci Number
</text>
<text x="-20.0" y="-271.4583333333333" style="writing-mode: tb; text-anchor: middle; font-size: 12.0px"
transform="rotate(180)">
Time (nS)
</text>
<rect
    x="715.5" y="45.5" height="204.8" width="84.5" rx="9.0"
    fill="silver" opacity=".1" stroke="black" stroke-width="1.5"
/>
<text x="728.5" y="65.0" font-size="13.0px" font-weight="bold">Legends:</text>
<text x="728.5" y="94.2" stroke="violet"  fill="violet" font-size="13.0px">Array</text>
<text x="728.5" y="113.8" stroke="#ff0000"  fill="#ff0000" font-size="13.0px">Binet</text>
<text x="728.5" y="133.2" stroke="#ff00ff"  fill="#ff00ff" font-size="13.0px">Binet2</text>
<text x="728.5" y="152.8" stroke="#008000"  fill="#008000" font-size="13.0px">Iterative</text>
<text x="728.5" y="172.2" stroke="#0000ff"  fill="#0000ff" font-size="13.0px">Recursive</text>
<text x="728.5" y="191.8" stroke="#dc143c"  fill="#dc143c" font-size="13.0px">Recursive2</text>
<text x="728.5" y="211.2" stroke="#f4a460"  fill="#f4a460" font-size="13.0px">Recursive1…</text>
<text x="728.5" y="230.8" stroke="#ff8c00"  fill="#ff8c00" font-size="13.0px">Hybrid</text>
<text x="400.0" y="591.7" style="text-anchor: middle; font-size: 25.0px">Fibonacci Implementation timings</text>
</svg>
